<?xml version="1.0" encoding="utf-8"?>
<!-- Generator: Adobe Illustrator 24.1.2, SVG Export Plug-In . SVG Version: 6.00 Build 0)  -->
<svg version="1.1" id="Layer_1" xmlns="http://www.w3.org/2000/svg" xmlns:xlink="http://www.w3.org/1999/xlink" x="0px" y="0px"
	 viewBox="0 0 59.2 36.1" style="enable-background:new 0 0 59.2 36.1;" xml:space="preserve">
<style type="text/css">
	.st0{fill:#617184;}
</style>
<path class="st0" d="M33.8,5.2c-7.3-2.4-14.6-3.3-20.5-2.8C7,3,2.9,5.4,1.7,9c-1.2,3.6,0.8,7.9,5.5,12.1c4.5,4,11,7.4,18.3,9.8
	c6.1,2,12,2.9,17,2.9c7.9,0,13.7-2.3,15.1-6.8C60,19.9,49.5,10.3,33.8,5.2z M55.3,26.3c-1.6,5.1-13.7,7.2-29,2.2
	c-7-2.3-13.2-5.6-17.4-9.3C5,15.8,3.3,12.3,4.1,9.8c0.8-2.6,4.3-4.4,9.5-4.9c1-0.1,2.1-0.2,3.3-0.2c3.2,0,6.8,0.4,10.5,1.2
	c-0.7,0.4-1.5,1.1-2.2,1.6c-1.8,1.6-2.7,3.5-2.4,5.5c0.1,0.6,0.6,0.9,1.1,1c0.1,0,0.2,0,0.2,0c0.6-0.2,1.1-0.6,1-1.3
	c-0.2-1.2,0.5-2.4,1.7-3.5c0.9-0.8,2.1-2.1,3.3-2.7c1,0.3,2,0.6,3,0.9c2.5,0.8,4.9,1.8,7.1,2.8c-1.1,0.6-2.2,1.7-3.1,2.4
	c-1.8,1.6-2.7,3.5-2.4,5.5c0.1,0.6,0.3,0.9,0.9,0.9c0.1,0,0.2,0,0.2,0c0.6-0.2,1.1-0.6,1-1.3c-0.2-1.2,0.5-2.4,1.7-3.5
	c1.1-1,2.4-2.4,4-2.9C51.7,16.3,56.5,22.4,55.3,26.3z"/>
</svg>
