<!-- Generated by IcoMoon.io -->
<svg version="1.1" xmlns="http://www.w3.org/2000/svg" width="32" height="32" viewBox="0 0 32 32">
<title>vegetarian</title>
<path d="M16 0c-8.837 0-16 7.163-16 16s7.163 16 16 16c8.837 0 16-7.163 16-16s-7.163-16-16-16zM16 30.375c-7.939 0-14.375-6.436-14.375-14.375s6.436-14.375 14.375-14.375c7.939 0 14.375 6.436 14.375 14.375s-6.436 14.375-14.375 14.375zM26.61 10.37c-0.065-0.453-0.287-0.846-0.608-1.128 0.268-0.396 0.429-0.883 0.429-1.408 0-0.607-0.216-1.164-0.574-1.598-0.356-0.343-0.846-0.556-1.385-0.556-0.018 0-0.036 0-0.054 0.001-0.566 0.014-1.098 0.16-1.566 0.409-0.255-0.326-0.632-0.547-1.060-0.618l-0.271-0.001c-1.2 0-2.18 1.22-2.38 3-0.005 0.059-0.008 0.128-0.008 0.197 0 0.288 0.051 0.564 0.143 0.819-0.519-0.317-1.134-0.501-1.791-0.517-0.027-0.001-0.054-0.001-0.081-0.001-0.581 0-1.112 0.217-1.516 0.573-2.725 2.81-5.129 5.961-7.132 9.376-1.596 2.752-3.176 5.932-2.366 6.742 0.175 0.155 0.408 0.25 0.662 0.25 0.010 0 0.020 0 0.030-0 2.139 0 10.229-4.55 15.409-9.73 0.060-0.060 1.18-1.24 0.11-3.32 0.258 0.101 0.556 0.163 0.867 0.17l0.223 0c1.032-0.065 1.943-0.533 2.587-1.247 0.227-0.302 0.362-0.68 0.362-1.089 0-0.115-0.011-0.227-0.031-0.336l0.002 0.011zM21.72 15.43c-1.141 1.129-2.355 2.193-3.629 3.182l-1.931-1.782c-0.096-0.122-0.244-0.199-0.409-0.199-0.287 0-0.52 0.233-0.52 0.52 0 0.166 0.078 0.313 0.198 0.409l1.751 1.761c-4.35 3.23-8.78 5.43-10 5.53 0.050-0.81 1.21-3.39 3.1-6.44l1.17 1.18c0.096 0.122 0.244 0.199 0.409 0.199 0.287 0 0.52-0.233 0.52-0.52 0-0.166-0.078-0.313-0.198-0.409l-1.381-1.351c1.278-1.967 2.555-3.667 3.935-5.275l1.265 1.335c0.087 0.069 0.199 0.111 0.321 0.111 0.287 0 0.52-0.233 0.52-0.52 0-0.121-0.042-0.233-0.111-0.322l-1.319-1.319c0.39-0.43 0.79-0.86 1.2-1.26 0.22-0.169 0.499-0.271 0.802-0.271 0.021 0 0.041 0 0.061 0.001 0.587-0 1.567 0.29 2.917 1.65 2.46 2.51 1.37 3.74 1.33 3.79v-0zM23.53 12h-0.11c-0.68-0.1-1.275-0.41-1.73-0.86l1.22-1.24c0.122-0.096 0.199-0.244 0.199-0.409 0-0.287-0.233-0.52-0.52-0.52-0.166 0-0.313 0.078-0.409 0.198l-1.181 1.211c-0.482-0.473-0.797-1.116-0.849-1.831 0.139-1.179 0.729-2.069 1.359-2.069h0.1c0.4 0.060 0.71 0.48 0.86 1.070 0.518-0.469 1.187-0.779 1.927-0.849 0.024-0.001 0.037-0.002 0.050-0.002 0.26 0 0.496 0.099 0.674 0.261 0.509 0.509 0.219 1.649-0.631 2.669 0.63 0.15 1.070 0.47 1.14 0.89 0.060 0.67-0.86 1.32-2.1 1.48v0z"></path>
</svg>
