<?xml version="1.0" encoding="utf-8"?>
<!-- Generator: Adobe Illustrator 24.1.2, SVG Export Plug-In . SVG Version: 6.00 Build 0)  -->
<svg version="1.1" id="Livello_1" xmlns="http://www.w3.org/2000/svg" xmlns:xlink="http://www.w3.org/1999/xlink" x="0px" y="0px"
	 viewBox="0 0 43 38" style="enable-background:new 0 0 43 38;" xml:space="preserve">
<style type="text/css">
	.st0{fill:#617184;}
</style>
<path class="st0" d="M8.7,14.3c0.2,0.6-0.1,1.2-0.6,1.4c-1.1,0.3-1.6,1.5-2.2,3c-0.2,0.5-1,0.9-1.3,0.8c-0.5-0.2-0.9-0.7-0.8-1.3
	c0.7-3,2.3-4.1,3.6-4.6C7.9,13.4,8.5,13.7,8.7,14.3z M14,30.4c-1.2,0-2.7,0.6-2.9,0.7c-2.3,1-3.8-0.5-3.8-0.6
	c-5.9-5.3-4.6-13.1-4.6-13.1c0.5-2.2,1.5-3.8,2.9-4.5c2.1-1.1,4.4-0.3,4.4-0.3c0.7,0.2,3.8,0.5,3.9,0.5c0.1,0,1.3,0,3.8-0.5
	c0.1,0,2.9-0.9,5,0.5l1.2-1.8c-2.8-1.9-6-0.9-6.6-0.7C15,11,15,10.9,13.9,11c0,0-1,0-3.3-0.4c-0.6-0.2-3.4-1-6.1,0.4
	c-2,1.1-3.3,3-4,6c-0.1,0.4-1.6,9,5.2,15.1c0.6,0.7,1.9,1.5,3.7,1.5c0.7,0,1.6-0.2,2.4-0.5c0.5-0.2,1.5-0.5,2.1-0.5s1.6,0.3,2,0.5
	c0.6,0.3,1.2,0.4,1.8,0.5l0.3-2.1c-0.4-0.1-0.8-0.2-1.2-0.4C16.7,31,15.1,30.4,14,30.4z M9.5,4c0.2-0.6,0.8-0.8,1.3-0.7
	c0.2,0.1,1.4,0.5,2.6,2c0.3-1.1,0.9-2.2,1.9-3c1.6-1.2,5.4-1.9,5.9-2c0.4-0.1,0.7,0.1,1,0.3s0.4,0.6,0.3,1s-0.9,4-2.2,5.7l0,0
	c-1.7,2.2-4.9,2.3-5.9,2.3c-0.2,0-0.2,0-0.3,0c-0.5,0-0.9-0.4-1-0.8c-1.2-2.8-2.8-3.5-2.9-3.5C9.6,5.2,9.3,4.5,9.5,4z M15.2,7.5
	c1-0.1,2.5-0.5,3.3-1.5c0.5-0.7,1-2,1.4-3.2c-1.3,0.3-2.7,0.8-3.3,1.2C15.7,4.8,15.3,6.4,15.2,7.5z M42.3,7.8l-2.8,2.6
	c0.8,0.8,1.4,1.8,1.7,2.9c0.3,1.2,0.2,2.3-0.5,3.4c-0.4,0.6-8,13.7-17.3,20.3c-0.3,0.2-0.8,0.5-1.6,0.5c-0.3,0-0.9-0.2-1.2-0.3
	c-1.2-0.6-1.2-2-1.2-2.2v-0.1c1-11.4,7-25.1,7.3-25.7c0.6-1.2,1.4-1.9,2.6-2.3c1.1-0.4,2.4-0.3,3.5-0.1l1-4.1
	c0.1-0.6,0.7-0.9,1.3-0.8C35.6,2,36,2.5,35.9,3.1l-1,4.2c0.2,0.1,0.4,0.1,0.5,0.2l3.1-5.6c0.3-0.5,0.9-0.7,1.5-0.4
	c0.5,0.3,0.7,0.9,0.4,1.5l-3.1,5.6c0.2,0.1,0.4,0.3,0.6,0.4l3-2.8c0.4-0.4,1.1-0.4,1.5,0C42.8,6.7,42.8,7.3,42.3,7.8z M39.2,13.8
	c-0.5-1.8-2.9-3.4-3.8-4c-0.9-0.5-3.6-1.5-5.4-0.9c-0.6,0.2-1,0.6-1.3,1.2c0,0-0.6,1.3-1.4,3.4c0.2,0.3,0.7,0.7,1.5,1.1
	c0.5,0.2,0.8,0.9,0.6,1.4c-0.2,0.4-0.6,0.8-1,0.7c-1.1-0.3-1.5-0.7-1.8-1c-0.3,0.9-0.7,2-1.1,3.1c0.4,0.5,1.2,1.5,2.8,2.2
	c0.5,0.2,0.8,0.9,0.6,1.4c-0.2,0.4-0.6,0.7-1,0.6c-0.8-0.2-2.5-1.3-3.2-1.9c-0.5,1.5-0.9,3-1.3,4.5c0.3,0.3,0.8,0.9,1.7,1.3
	c0.5,0.2,0.8,0.9,0.6,1.4c-0.2,0.4-0.6,0.7-1,0.7c-0.1,0-0.2,0-0.4-0.1c-0.2-0.1-1.1-0.6-1.4-0.9c-0.5,2.3-1,4.7-1.1,6.9
	c0,0.1,0,0.3,0.2,0.4c0.2,0.1,0.3,0,0.4-0.1c2.7-2.4,5.6-5.2,8-8c-0.5-0.2-1.1-0.4-1.7-0.8c-0.5-0.3-0.6-1-0.3-1.5
	c0.3-0.5,1-0.6,1.5-0.3c0.8,0.5,1.7,0.6,2.1,0.7c0.9-1.1,1.7-2.1,2.4-3.1c-0.8-0.2-1.8-0.5-2.8-1.2c-0.5-0.3-0.6-1-0.3-1.5
	c0.3-0.5,1-0.6,1.5-0.3c1.3,0.9,2.5,1,3.1,1c2-2.8,3.1-4.3,3.3-4.8C39.3,15,39.3,14.4,39.2,13.8z"/>
</svg>
