<?xml version="1.0" encoding="utf-8"?>
<!-- Generator: Adobe Illustrator 24.1.2, SVG Export Plug-In . SVG Version: 6.00 Build 0)  -->
<svg version="1.1" id="Livello_1" xmlns="http://www.w3.org/2000/svg" xmlns:xlink="http://www.w3.org/1999/xlink" x="0px" y="0px"
	 viewBox="0 0 102 59" style="enable-background:new 0 0 102 59;" xml:space="preserve">
<style type="text/css">
	.st0{fill:#617184;}
</style>
<path class="st0" d="M86.8,41.1c0,0,0.4-0.7-0.7-1.3c0-0.1-0.4-0.7-0.7-0.7c-0.4,0-1.1,0.4-1.3,1.3c-0.1,0.7,0.1,1,0.7,1.3
	c0,0,0.4,0.7,1.1,0.4C86.7,41.8,86.8,41.1,86.8,41.1 M93.8,33.5c0,0-0.4-0.4-1.3,0.4c-0.1,0-0.7,0.1-0.7,0.4
	c-0.1,0.4-0.1,1.1,0.7,1.6c0.4,0.4,1,0.1,1.3-0.1c0,0,0.7-0.1,0.7-0.7C94.3,33.7,93.9,33.5,93.8,33.5 M94,24.7c0,0-0.4-0.4-1.3,0.4
	c-0.1,0-0.7,0.1-0.7,0.4c-0.1,0.4-0.1,1.1,0.7,1.6c0.4,0.4,1,0.1,1.3-0.1c0,0,0.7-0.1,0.7-0.7C94.9,25.3,94,24.7,94,24.7 M86.2,22.9
	c0,0-0.4-0.4-1.1,0.4c0,0-0.4,0.1-0.4,0.4c0,0.4,0,0.7,0.7,1.3c0.4,0.1,0.7,0,1-0.4c0,0,0.7-0.1,0.4-0.7
	C86.8,23,86.7,22.9,86.2,22.9 M79,26c0,0-0.4-0.7-1.3-0.4c0,0-0.7-0.1-1,0.1c-0.4,0.4-0.4,1,0,1.8c0.4,0.4,0.7,0.4,1.1,0.4
	c0,0,0.7,0.1,1.1-0.4C79.3,26.6,79,26,79,26 M82.5,19.9c0,0-0.1-0.4-1.1-0.4c0,0-0.4-0.1-0.7,0.1c-0.1,0.1-0.4,0.7,0,1.3
	c0.4,0.4,0.7,0.4,1,0.4c0,0,0.7,0.1,0.7-0.4C82.7,20.6,82.5,19.9,82.5,19.9 M72,23.6c0,0,0-0.7-1.3-1.1c0,0-0.7-0.4-1-0.4
	c-0.4,0.1-1.1,0.7-1,1.8c0.1,0.7,0.4,1,1,1c0,0,0.7,0.7,1.3,0.1C72,24.6,72,23.9,72,23.6 M75.7,33.4c0,0,0-0.7-1.3-0.7
	c0,0-0.7-0.4-1-0.1c-0.4,0.1-0.7,0.7-0.7,1.8c0.1,0.7,0.4,0.7,1,0.7c0,0,0.7,0.4,1.1,0C75.7,34,75.7,33.4,75.7,33.4 M75.2,38.8
	c0,0-0.7-0.4-1.6,0.4c-0.1,0-0.7,0.1-0.7,0.7c-0.1,0.4-0.1,1.3,1,1.8c0.7,0.4,1,0.1,1.3-0.1c0,0,0.7-0.1,0.7-1
	C75.7,39.2,75.2,38.8,75.2,38.8 M80.1,11.1c5.7,0,10.2,2.3,13.9,5.4c4.5,3.4,6.5,8.8,6.5,15.2c-0.1,8.9-4.3,15.3-11.4,18.5
	c-1.3,0.7-2.4,1.1-3.7,1.3c-3.4,0.7-3.4-1.3-3.4-4c0-0.7-0.1-2-0.4-3.5c-0.1-2,0-4.5,3.4-5.8c0.4,0,1.8,0.4,3,0.7
	c0.7,0.7,2.3,4,6.5,0.1c-3-3-4.8-1.8-5.8-1.3c-0.7-0.1-1.3-0.4-1.8-0.7c3.7-1.8,4-3.5,4.5-5.1c1.3,0.1,4.7-0.4,4.7-3.7
	c-1.3-0.7-3.5,0.7-4.5,2.3c0-2-0.1-4.3-0.4-5.1c0.7-0.7,3.7-1.6,2.6-4.8c-4.5,0.4-4.3,3.7-4,4.8c0.1,0.7,1.1,6-1.3,8.4
	c-1.1,1-6,3.1-6.1,3.4c0.7-3.4,3-5.4,4.5-6.5c1.3-0.7,3-3,1.3-5.7c-3.4,1.8-2.4,4-2.3,4.7c-0.7,0.7-1.8,1.3-2.3,2
	c0.4-3-0.7-4.3-0.7-4.8c0-1.1,0.4-3,1.3-4c3.7-1.1,2.4-4.5,2-4.8c-1.8,0.4-3.4,2.3-3,4.3c-0.7,1-1.3,1.8-1.8,3.1
	c-0.4-0.4-0.7-1-1.1-1.3c0-0.1,0.4-3.5-3-3.7c-1.1,3,1.1,4.5,1.8,4.7c0.4,0.4,3.4,2,2.6,7.1c-0.1,1-0.4,2.3-1.6,2
	c-1-0.1-1.8-1.8-2.3-2.3c-1.8-1.8-4.5-7.7-3.4-10.1c3-1.1,3-3.7,2.6-4.8c-4,0-3.5,3-3.5,3.4c-0.1,0.4-0.1,0.4-0.4,0.4
	c-0.4-2-1.8-3-3.4-3.1c-0.4,2.3,0.6,3.5,2.4,4.3c0.4,3,0.7,5.8,2.3,8.1c-1.8-0.4-4-1-5.4-2.3c-0.4-0.7-1.1-3.5-4.8-3.4
	c-0.4,2.6,2.3,4,4,4.5c1.6,1.8,4.5,2,5.7,2.3c2.3,0.4,3.7,5.7,3.4,5.8c-0.1,0.1-0.7,0.1-1,0c-0.1,0-4.5-1.8-4.8-2.6
	c0-0.1-0.4-4.5-5.1-3.5c-0.4,3,2,4,3.4,4.3c1,0.7,1.8,1.1,1.8,1.1c-1.3,0-2.4,0-3.7-0.4c-1-1.8-2.3-3.5-4.8-3
	c-0.4,2.4,1.8,4.5,4.7,4.5c0.4,0,3.7,0.4,4.3,0.4c-0.1,0.4-0.4,0.7-1.1,0.7c-3.7-0.7-4.8,2.4-5.1,3c3.4,2,5.8-1,6.5-1.8
	c0.4-0.4,1.6-1.3,1.8-1.6c0.7,0.1,4.5,0.1,3.7,7.1c-0.1,1.8-0.4,4-0.7,6.1c-4.8-0.4-9.5-2.3-12.5-5.4c-3.7-4.3-5.1-8.2-5.1-14.1
	c0-8.4,3.4-14.6,9.8-17.6C72.3,12.3,75.4,11.1,80.1,11.1 M16.7,43.1c0,0,7.7,1,7.7-4.5c0-6-7.7-4.8-7.7-4.8V43.1 M16.7,27.2
	c0,0,7,0.7,7-4s-7-4-7-4V27.2z M32.7,31.1c2,1.1,6,3.1,6,8.8C38.7,48,32,50,25.6,50.4c-4.8,0.3-17,0.7-20.9,0.3
	c-1.8-0.1-3-0.4-3-3.5c0-7.7-0.1-26.1,0-32.5c0-2.3,1.3-2.4,2.3-2.4c4.5-0.4,19.4-0.7,24.1,0.4c8.2,2,9.8,7.1,9.8,10.5
	S36.3,29.3,32.7,31.1 M54.4,12.3c-2-0.1-10.6,0.1-11.8,0.3c-1,0.1-1.3,1-1.3,2.3c0,1.1-0.7,25.1,0.4,33.1c0.4,3,1.8,3,3.1,3.1
	c3.5,0.1,9.2-0.4,9.8-0.4c0.7-0.1,1.6-1.1,1.6-3.1c0-1.8,0.7-29,0.4-31.9C56.7,12.8,56.6,12.5,54.4,12.3"/>
</svg>
