<?xml version="1.0" encoding="utf-8"?>
<!-- Generator: Adobe Illustrator 24.1.2, SVG Export Plug-In . SVG Version: 6.00 Build 0)  -->
<svg version="1.1" id="Livello_1" xmlns="http://www.w3.org/2000/svg" xmlns:xlink="http://www.w3.org/1999/xlink" x="0px" y="0px"
	 viewBox="0 0 46 40.7" style="enable-background:new 0 0 46 40.7;" xml:space="preserve">
<style type="text/css">
	.st0{fill:#617184;}
</style>
<path class="st0" d="M29.4,29.8c0.5-1.1,0.5-1.9,0.5-2c-0.1-1.4-1.3-2.7-1.4-2.8c-1.7-2-4.5-2.3-5.8-2.2c-0.1-0.6-0.2-1-0.2-1v-0.1
	c-1.3-2.8-5.1-3-6.2-3.1c-1.1,0-4.9,0.3-6.2,3.1c0,0.1-0.7,2,0.2,4.6l3.4,9c-0.2,0.2-0.4,0.2-0.5,0.3c-0.4,0.1-0.9-0.2-1-0.2
	l-6.5-5.8C5,28.6,5,27.9,5,27.9c0-0.4,0.4-1.1,0.9-1.5c0.5-0.7,1.4-1.2,2.6-1.4L8,22.9C6.4,23.2,5,24,4.2,25
	c-0.1,0.1-1.3,1.4-1.4,2.8c0,0.1-0.1,1,0.5,2.1c-0.6,0.7-2.6,3.2-2.7,5.7c-0.2,1.3,0.3,3.3,2.1,3.6c0,0,0.4,0.1,1.1,0.1
	c1.3,0,3.7-0.3,6.8-2.5l0.2,0.1c0.1,0.1,1,0.7,2.1,0.7c0.1,0,0.3,0,0.5,0c0.3,0,0.6-0.1,1-0.3c0.3,0.5,1,1,1.8,1h0.1h0.1
	c0.9,0,1.5-0.5,1.8-1.1c0.3,0.2,0.7,0.3,1,0.3c0.2,0,0.3,0,0.5,0c1.2,0,2-0.6,2.2-0.7l0.1-0.1c3,2.1,5.4,2.5,6.8,2.5
	c0.6,0,1-0.1,1.1-0.1c1.9-0.3,2.5-2.1,2.2-3.6C32,33,30.1,30.5,29.4,29.8z M3.2,37.1c-0.6-0.1-0.5-1.3-0.5-1.3v-0.1
	c0.1-1.5,1.2-3.2,1.9-4.2L9,35.4C5.7,37.5,3.5,37.1,3.2,37.1z M16.4,36.2C16.3,36.1,16.3,36.1,16.4,36.2l-4.1-10.6
	c-0.6-1.7-0.2-3-0.2-3c0.9-1.7,3.7-1.8,4.3-1.8c0.5,0,3.4,0.2,4.3,1.8c0.1,0.2,0.4,1.4-0.2,3l-4,10.5C16.5,36,16.5,36.1,16.4,36.2z
	 M19.6,35.6c-0.1,0-0.2,0-0.4-0.2l3.4-9c0.2-0.5,0.3-1,0.3-1.4c0.9,0,2.9,0.1,4.2,1.6c0.3,0.3,0.7,1,0.7,1.5c0,0,0,0.7-0.7,1.7
	l-6.4,5.7C20.4,35.4,19.9,35.6,19.6,35.6z M29.4,37.1c-0.1,0-2.3,0.4-5.8-1.7l4.4-3.8c0.7,1,1.8,2.7,1.9,4.2v0.1
	C29.9,35.8,30.2,37,29.4,37.1z M40.6,16c-0.2,0-0.5,0-0.7,0.1v-3.6h-21v5.3H21v-3.2h16.7v11c0,1.6-1.3,2.9-2.9,2.9h-3.7v2.1h3.7
	c2.8,0,5-2.2,5-5V25c0.2,0,0.5,0.1,0.7,0.1c2.7,0,4.7-2,4.7-4.5C45.3,18.1,43.3,16,40.6,16z M40.6,23c-0.2,0-0.5,0-0.7-0.1v-4.5
	c0.2-0.1,0.5-0.1,0.7-0.1c1.4,0,2.6,1.1,2.6,2.3S42.1,23,40.6,23z M27.7,7.2h3.4c0.1,0,0.3,0.2,0.3,0.3s-0.1,0.3-0.3,0.3h-1.5
	c-1.4,0-2.5,1.1-2.5,2.5v0.2c0,0.6,0.4,1.1,1.1,1.1c0.6,0,1.1-0.4,1.1-1.1v-0.2c0-0.2,0.1-0.3,0.3-0.3h1.5c1.3,0,2.5-1.2,2.5-2.5
	c0-1.4-1.1-2.5-2.5-2.5h-3.4C27.4,5,27,4.6,27,4.3c0-0.4,0.3-0.7,0.7-0.7h7.6c0.6,0,1.1-0.4,1.1-1.1S36,1.4,35.3,1.4h-7.6
	c-1.5,0-2.9,1.3-2.9,2.9C24.9,5.9,26.2,7.2,27.7,7.2z"/>
</svg>
