<?xml version="1.0" encoding="utf-8"?>
<!-- Generator: Adobe Illustrator 24.1.2, SVG Export Plug-In . SVG Version: 6.00 Build 0)  -->
<svg version="1.1" id="Livello_1" xmlns="http://www.w3.org/2000/svg" xmlns:xlink="http://www.w3.org/1999/xlink" x="0px" y="0px"
	 viewBox="0 0 32 36" style="enable-background:new 0 0 32 36;" xml:space="preserve">
<style type="text/css">
	.st0{fill:#617184;}
</style>
<path class="st0" d="M29.3,6.5H2.7c-1.3,0-2.3,1-2.3,2.3v16.6c0,1.3,1,2.3,2.3,2.3h1.4v0.9c0,0.7,0.6,1.3,1.3,1.3h3.3
	c0.7,0,1.3-0.6,1.3-1.3v-0.9h11.4v0.9c0,0.7,0.6,1.3,1.3,1.3H26c0.7,0,1.3-0.6,1.3-1.3v-0.9h1.9c1.3,0,2.3-1,2.3-2.3V8.9
	C31.7,7.6,30.6,6.5,29.3,6.5L29.3,6.5L29.3,6.5z M8.7,28.7l-3.3,0v-0.9h3.3L8.7,28.7z M26,28.7l-3.3,0v-0.9h3.3L26,28.7z M29.7,25.4
	c0,0.2-0.1,0.3-0.3,0.3H2.7c-0.2,0-0.3-0.1-0.3-0.3V8.9c0-0.2,0.1-0.3,0.3-0.3h26.7c0.2,0,0.3,0.1,0.3,0.3l0,0V25.4z M19.2,11.2h-13
	c-1,0-1.7,0.8-1.7,1.7v8.3c0,1,0.8,1.8,1.8,1.8h12.9c1,0,1.8-0.8,1.8-1.8V13C21,12,20.2,11.2,19.2,11.2L19.2,11.2L19.2,11.2z
	 M19.7,21.3c0,0.2-0.2,0.4-0.4,0.4H6.3c-0.2,0-0.4-0.2-0.4-0.4V13c0-0.2,0.2-0.4,0.4-0.4l0,0h13c0.2,0,0.4,0.2,0.4,0.4l0,0V21.3z
	 M25.1,11.9c-1.3,0-2.3,1-2.3,2.3s1,2.3,2.3,2.3c1.3,0,2.3-1,2.3-2.3l0,0C27.5,13,26.4,11.9,25.1,11.9L25.1,11.9L25.1,11.9z
	 M25.1,15.2c-0.5,0-1-0.4-1-1s0.4-1,1-1s1,0.4,1,1l0,0C26.1,14.8,25.7,15.2,25.1,15.2L25.1,15.2z M25.1,17.7c-1.3,0-2.3,1-2.3,2.3
	s1,2.3,2.3,2.3c1.3,0,2.3-1,2.3-2.3l0,0C27.5,18.8,26.4,17.7,25.1,17.7L25.1,17.7L25.1,17.7z M25.1,21.1c-0.5,0-1-0.4-1-1s0.4-1,1-1
	s1,0.4,1,1l0,0C26.1,20.6,25.7,21.1,25.1,21.1L25.1,21.1z"/>
</svg>
