<?xml version="1.0" encoding="utf-8"?>
<!-- Generator: Adobe Illustrator 24.1.2, SVG Export Plug-In . SVG Version: 6.00 Build 0)  -->
<svg version="1.1" id="Livello_1" xmlns="http://www.w3.org/2000/svg" xmlns:xlink="http://www.w3.org/1999/xlink" x="0px" y="0px"
	 viewBox="0 0 32 32" style="enable-background:new 0 0 32 32;" xml:space="preserve">
<style type="text/css">
	.st0{fill:#617184;}
</style>
<path class="st0" d="M23.3,9.4L23.3,9.4H17c0-0.3,0.1-0.6,0.1-0.9c0-1.6-0.5-3.2-1.4-4.4l0,0C14.5,2.8,12.8,2,10.9,2
	c-0.2,0-0.3,0-0.5,0l0,0c-0.6,0-1,0.4-1,1s0.4,1,1,1l0,0c0.1,0,0.3,0,0.4,0c1.3,0,2.5,0.5,3.3,1.4l0,0c0.6,0.9,1,2,1,3.2
	c0,0.3,0,0.6-0.1,0.9l0,0H8.8c-4.7,0.1-8.5,4-8.5,8.7c0,5,3.8,9,8.5,9.1l0,0c2.9,0,5.5-1.5,6.9-3.8l0,0h0.5c1.5,2.3,4.1,3.8,7,3.8
	l0,0c4.7-0.1,8.5-4.6,8.5-9.1C31.7,13.4,28,9.6,23.3,9.4L23.3,9.4L23.3,9.4z M23.2,25.3c-2.6,0-4.8-1.6-5.8-3.8l0,0h-2.9
	c-1,2.2-3.2,3.8-5.8,3.8l0,0c-3.6-0.1-6.5-2.8-6.5-7.2c0-4.2,2.9-6.6,6.5-6.7l0,0l0,0h14.5c3.6,0.1,6.5,3.1,6.5,6.7
	C29.7,21.9,26.9,25.2,23.2,25.3L23.2,25.3L23.2,25.3z M11.4,16.9H10v-1.4c0-0.6-0.4-1-1-1s-1,0.4-1,1l0,0v1.4H6.6c-0.6,0-1,0.4-1,1
	s0.4,1,1,1l0,0H8v1.4c0,0.6,0.4,1,1,1s1-0.4,1-1l0,0v-1.4h1.4c0.6,0,1-0.4,1-1S11.9,16.9,11.4,16.9L11.4,16.9z M25,17.2L25,17.2
	c-1.3,0-2.3,1-2.3,2.3s1,2.3,2.3,2.3s2.3-1,2.3-2.3l0,0l0,0C27.3,18.2,26.3,17.2,25,17.2L25,17.2z M25,20.5L25,20.5
	c-0.6,0-1-0.4-1-1s0.4-1,1-1s1,0.4,1,1l0,0C26,20.1,25.5,20.5,25,20.5L25,20.5L25,20.5z M20.5,14L20.5,14c-1.3,0-2.3,1-2.3,2.3
	s1,2.3,2.3,2.3s2.3-1,2.3-2.3l0,0l0,0C22.8,15,21.7,14,20.5,14L20.5,14z M20.5,17.3L20.5,17.3c-0.6,0-1-0.4-1-1s0.4-1,1-1s1,0.4,1,1
	l0,0C21.5,16.9,21,17.3,20.5,17.3L20.5,17.3L20.5,17.3z"/>
</svg>
