<?xml version="1.0" encoding="utf-8"?>
<!-- Generator: Adobe Illustrator 24.1.2, SVG Export Plug-In . SVG Version: 6.00 Build 0)  -->
<svg version="1.1" id="Livello_1" xmlns="http://www.w3.org/2000/svg" xmlns:xlink="http://www.w3.org/1999/xlink" x="0px" y="0px"
	 viewBox="0 0 32 32" style="enable-background:new 0 0 32 32;" xml:space="preserve">
<style type="text/css">
	.st0{fill:#617184;}
</style>
<path class="st0" d="M4.5,20.9c0.1,0,0.3,0,0.4-0.1l0,0l15.7-10.7c0.2-0.1,0.3-0.3,0.3-0.6c0-0.4-0.3-0.7-0.7-0.7
	c-0.1,0-0.3,0-0.4,0.1l0,0L4.2,19.7C4,19.8,3.9,20,3.9,20.3C3.9,20.6,4.2,20.9,4.5,20.9L4.5,20.9L4.5,20.9z M4.5,16.4
	c0.1,0,0.3,0,0.4-0.1l0,0l7.4-5c0.2-0.1,0.3-0.3,0.3-0.6c0-0.4-0.3-0.7-0.7-0.7c-0.1,0-0.3,0-0.4,0.1l0,0l-7.4,5
	c-0.2,0.1-0.3,0.3-0.3,0.6C3.9,16.1,4.2,16.4,4.5,16.4L4.5,16.4L4.5,16.4L4.5,16.4z M30.7,5H1.3c-0.6,0-1,0.4-1,1l0,0v19.9
	c0,0.6,0.4,1,1,1H15v1.8h-4.6c-0.6,0-1,0.4-1,1s0.4,1,1,1l0,0h11.2c0.6,0,1-0.4,1-1s-0.4-1-1-1l0,0H17v-1.8h13.7c0.6,0,1-0.4,1-1
	l0,0V6C31.7,5.4,31.2,5,30.7,5L30.7,5z M29.7,24.9H2.3V7h27.3v17.9H29.7z"/>
</svg>
