<!-- Generated by IcoMoon.io -->
<svg version="1.1" xmlns="http://www.w3.org/2000/svg" width="32" height="32" viewBox="0 0 32 32">
<title>gluten-free</title>
<path d="M16 0c-8.838 0-16 7.162-16 16s7.162 16 16 16 16-7.163 16-16-7.163-16-16-16zM29.259 10.4c0.75 1.775 1.131 3.659 1.131 5.6s-0.381 3.828-1.131 5.6c-0.725 1.712-1.762 3.253-3.084 4.575s-2.859 2.359-4.575 3.084c-1.775 0.75-3.659 1.131-5.6 1.131s-3.828-0.381-5.6-1.131c-1.544-0.653-2.944-1.559-4.172-2.697l3.522-3.563c0.266 1.034 0.75 1.931 1.406 2.678 1.041 1.206 2.575 1.975 4.291 1.994h0.003c0.269 0 0.531-0.022 0.788-0.063 0.2 0.041 0.462 0.063 0.731 0.063 1.719-0.016 3.253-0.784 4.294-1.994 1.084-1.359 1.738-3.091 1.738-4.975v-0.031c-0.012-0.431-0.366-0.778-0.8-0.778h-0.050c-0.497 0.034-0.953 0.106-1.397 0.212 0.891-1.166 1.391-2.613 1.391-4.172 0-0.081 0-0.159-0.003-0.241-0.028-0.409-0.375-0.738-0.797-0.738h-0.081c-0.416 0.041-0.791 0.109-1.153 0.2l0.194-0.15c0.691-0.916 1.109-2.072 1.109-3.325 0-0.106-0.003-0.213-0.009-0.319l5.153-5.141c1.141 1.225 2.050 2.628 2.703 4.178zM16.225 16.906c0.087 0.053 0.197 0.084 0.313 0.094h0.553c-0.35 0.434-0.641 0.931-0.856 1.472-0.244-0.538-0.541-1.038-0.903-1.481l0.378 0.009h0.191c0.119-0.006 0.228-0.041 0.325-0.094zM16.2 12.831h0.059v0.069l-0.059-0.069zM16.194 22.141c0.078 0.006 0.184 0.009 0.291 0.009s0.212-0.003 0.319-0.009h0.475c-0.438 0.531-0.8 1.147-1.056 1.816-0.287-0.663-0.647-1.275-1.091-1.816h-0.056l0.022-0.041c0.012 0.012 0.022 0.028 0.034 0.041h0.434c0.091 0.006 0.197 0.009 0.306 0.009s0.216-0.003 0.322-0.009zM21.991 20.922c-0.031 1.522-0.572 2.909-1.45 4.012-0.85 1-2.116 1.647-3.538 1.666l-0.294 0.019c-0.003-0.059-0.003-0.131-0.003-0.203 0-2.966 2.347-5.381 5.284-5.494zM17.359 21.072l-0.078 0.038h-0.581v-0.219c0-0.028 0-0.063 0-0.097 0-2.516 1.931-4.581 4.394-4.794 0.019 0.003 0.019 0.009 0.019 0.016 0 1.328-0.444 2.556-1.191 3.538-0.681 0.719-1.566 1.256-2.563 1.519zM16.778 16h-0.019c-0.031-0.206-0.050-0.444-0.050-0.684 0-2.191 1.538-4.025 3.591-4.481 0.059 0.2 0.078 0.438 0.078 0.681 0 1.050-0.325 2.025-0.878 2.831-0.606 0.897-1.591 1.522-2.722 1.653zM16.153 11.719l-0.003 0.003c-0.797-0.809-1.313-1.9-1.391-3.106 0.128-1.228 0.691-2.291 1.525-3.063 0.803 0.806 1.322 1.894 1.403 3.103-0.134 1.228-0.7 2.287-1.534 3.063zM15.722 15.316c0 0.244-0.019 0.478-0.056 0.712l0.003-0.025c-1.147-0.134-2.125-0.759-2.731-1.656-0.55-0.8-0.875-1.778-0.875-2.828 0-0.241 0.016-0.478 0.050-0.713 2.078 0.491 3.609 2.319 3.609 4.509zM15.7 20.8c0 0.022 0 0.044 0 0.063l-0.031 0.028v0.219h-0.581c-1.037-0.275-1.922-0.822-2.606-1.556-0.728-0.966-1.162-2.181-1.162-3.497 0-0.019 0-0.041 0-0.059 2.469 0.234 4.381 2.297 4.381 4.803zM15.694 26.413c0 0.063 0 0.125-0.003 0.188l-0.231-0.009c-1.416-0.016-2.678-0.65-3.534-1.644-0.875-1.103-1.416-2.497-1.456-4.019v-0.009c2.916 0.153 5.225 2.553 5.225 5.494zM2.741 21.6c-0.75-1.775-1.131-3.659-1.131-5.6s0.381-3.828 1.131-5.6c0.725-1.713 1.762-3.253 3.084-4.575s2.859-2.359 4.575-3.084c1.775-0.75 3.659-1.131 5.6-1.131s3.828 0.381 5.6 1.131c1.541 0.653 2.941 1.556 4.169 2.694l-4.578 4.566c-0.053-0.059-0.116-0.109-0.188-0.147-0.131-0.088-0.284-0.141-0.453-0.141-0.059 0-0.119 0.006-0.175 0.019-0.803 0.159-1.519 0.447-2.163 0.844 0.306-0.559 0.481-1.2 0.506-1.878-0.097-1.591-0.791-2.994-1.856-4.006-0.15-0.131-0.341-0.206-0.553-0.206s-0.403 0.078-0.55 0.206c-1.109 0.984-1.85 2.369-1.997 3.925-0.003 0.031-0.003 0.041-0.003 0.047 0 0.694 0.156 1.353 0.431 1.944-0.606-0.391-1.3-0.666-2.037-0.822-0.106-0.025-0.178-0.034-0.253-0.034-0.4 0-0.728 0.291-0.791 0.672-0.059 0.328-0.094 0.7-0.094 1.078 0 1.316 0.409 2.534 1.106 3.537l0.125 0.131c-0.309-0.081-0.684-0.147-1.066-0.188l-0.103-0.003c-0.425 0-0.772 0.331-0.797 0.747-0.003 0.075-0.003 0.159-0.003 0.244 0 1.556 0.5 2.997 1.347 4.172-0.397-0.116-0.85-0.184-1.316-0.219h-0.078c-0.209 0-0.397 0.081-0.541 0.209-0.153 0.141-0.253 0.344-0.259 0.569 0 0.397 0.028 0.784 0.084 1.166l-4.050 3.941c-1.153-1.238-2.069-2.65-2.725-4.206z"></path>
</svg>
