<?xml version="1.0" encoding="utf-8"?>
<!-- Generator: Adobe Illustrator 24.1.2, SVG Export Plug-In . SVG Version: 6.00 Build 0)  -->
<svg version="1.1" id="Livello_1" xmlns="http://www.w3.org/2000/svg" xmlns:xlink="http://www.w3.org/1999/xlink" x="0px" y="0px"
	 viewBox="0 0 25 32" style="enable-background:new 0 0 25 32;" xml:space="preserve">
<style type="text/css">
	.st0{fill:#617184;}
</style>
<path class="st0" d="M24.1,1.4l-5.6-1.3C18.4,0.1,18.2,0,18,0c-1.1,0-2.1,0.7-2.5,1.8l0,0l-1.4,5.9H0L3.5,32h16.2l3.4-24.3h-6.9
	l1.4-5.3c0-0.1,0.1-0.3,0.4-0.3l5.6,1.3c0.4,0.1,1-0.1,1.2-0.7C25,2.1,24.5,1.5,24.1,1.4L24.1,1.4L24.1,1.4z M13.5,9.9L12.4,14
	L11,13.4c-3-1.6-5.7-1.3-7.7,0.9L2.6,9.9H13.5z M5.3,29.8L3.5,16.2c1.7-2.4,4-2.9,6.9-1.4c2.7,1.4,5.8,2.3,9.1,2.6h0.1l-1.7,12.5
	H5.3V29.8z M20.5,9.9l-0.9,6c-1.9-0.1-5.3-1.2-5.3-1.2l1.3-4.9L20.5,9.9z"/>
</svg>
