<?xml version="1.0" encoding="utf-8"?>
<!-- Generator: Adobe Illustrator 19.0.0, SVG Export Plug-In . SVG Version: 6.00 Build 0)  -->
<svg version="1.1" id="Capa_1" xmlns="http://www.w3.org/2000/svg" xmlns:xlink="http://www.w3.org/1999/xlink" x="0px" y="0px"
	 viewBox="0 0 32 32" style="enable-background:new 0 0 32 32;" xml:space="preserve">
<style type="text/css">
	.st0{fill:#617184;}
</style>
<path class="st0" d="M28.6,12.6C28.6,5.7,23,0,16,0C9.1,0,3.5,5.7,3.5,12.6c0,5.9,4.1,10.8,9.5,12.2l-0.3,2.5h-1.8
	c-0.3,0-0.6,0.2-0.8,0.5l-1.1,3C9,31.1,9,31.3,9.1,31.5c0.1,0.2,0.4,0.3,0.7,0.3h12.3c0.3,0,0.5-0.1,0.7-0.4
	c0.1-0.2,0.2-0.5,0.1-0.8l-1.3-3c-0.1-0.3-0.4-0.5-0.7-0.5l-1.6,0l-0.4-2.4C24.4,23.6,28.6,18.6,28.6,12.6z M5.1,12.6
	c0-6,4.9-11,11-11s11,4.9,11,11s-4.9,11-11,11S5.1,18.6,5.1,12.6z M17.7,28.1L17.7,28.1c0.1,0.4,0.4,0.7,0.8,0.7l1.8,0l0.6,1.4h-9.9
	l0.5-1.4h1.9c0.4,0,0.7-0.3,0.8-0.7l0,0l0.4-3.1c0.5,0.1,1,0.1,1.5,0.1c0.4,0,0.8,0,1.2-0.1L17.7,28.1z M19.1,19.3
	c-0.1-0.8-0.4-1.7-0.8-3c-0.2-0.6-0.4-1.2-0.7-2c0.7,0.4,1.8,0.9,2.4,1.4c0.6,0.5,1.6,1.5,2,2c0.2,0.2,0.3,0.3,0.4,0.4
	c0.2,0.2,0.6,0.4,1.1,0.4c0.4,0,0.9-0.2,1.4-0.6c1-1,2.6-4.3,0.4-7.1c-0.6-0.8-1.7-1.2-2.8-1.1c-0.8,0.1-1.7,0.4-3,0.8
	c-0.6,0.2-1.2,0.4-1.9,0.6c0.3-0.7,1-2,1.4-2.6c0.5-0.6,1.5-1.6,2-2c0.2-0.2,0.3-0.3,0.4-0.4c0.4-0.4,0.8-1.4-0.2-2.5
	c-1-1-4.3-2.6-7.1-0.4c-0.8,0.6-1.2,1.7-1.1,2.8c0.1,0.8,0.4,1.7,0.8,3c0.2,0.6,0.4,1.2,0.6,2c-0.7-0.4-1.8-0.9-2.4-1.4
	c-0.6-0.5-1.6-1.5-2-2C9.8,7.4,9.7,7.3,9.6,7.2C9.2,6.9,8.2,6.5,7.1,7.5c-1,1-2.6,4.3-0.4,7.1c0.6,0.7,1.5,1.1,2.4,1.1
	c0.1,0,0.3,0,0.4,0c0.8-0.1,1.7-0.4,3-0.8c0.6-0.2,1.2-0.4,1.9-0.6c-0.3,0.7-1,2-1.4,2.6c-0.5,0.6-1.5,1.6-2,2
	c-0.2,0.2-0.3,0.3-0.4,0.4c-0.4,0.4-0.8,1.4,0.2,2.5c0.6,0.6,2.2,1.5,4,1.5c1,0,2.1-0.3,3.1-1.1C18.9,21.5,19.3,20.4,19.1,19.3z
	 M19.9,11.5c1.3-0.4,2.1-0.7,2.8-0.8c0.7-0.1,1.4,0.2,1.7,0.6c1.7,2.2,0.2,5-0.3,5.5c-0.5,0.5-0.8,0.2-0.9,0.2c0,0-0.1-0.1-0.3-0.3
	c-0.5-0.6-1.5-1.6-2.2-2.1c-0.7-0.5-2.1-1.2-2.8-1.6c0-0.1,0-0.3,0-0.4c0-0.2,0-0.3-0.1-0.5C18.6,11.9,19.3,11.7,19.9,11.5z
	 M14.8,4.1c2.2-1.7,5-0.2,5.5,0.3c0.5,0.5,0.2,0.8,0.2,0.9c0,0-0.1,0.1-0.3,0.3C19.6,6,18.6,7,18,7.7c-0.7,0.9-1.7,3-1.8,3.2
	c0,0-0.2,0-0.3,0c-0.1,0-0.2,0-0.3,0c-0.3-0.9-0.5-1.7-0.8-2.4c-0.4-1.3-0.7-2.1-0.8-2.8C14,5.1,14.3,4.4,14.8,4.1z M12.2,13.7
	c-1.3,0.4-2.1,0.7-2.8,0.8c-0.7,0.1-1.4-0.2-1.7-0.6c-1.7-2.2-0.2-5,0.3-5.5c0.5-0.5,0.8-0.2,0.9-0.2c0,0,0.1,0.1,0.3,0.3
	c0.5,0.6,1.5,1.6,2.2,2.1c0.8,0.6,2.6,1.4,3.1,1.7c0,0.1,0,0.2,0,0.4c0,0.1,0,0.2,0,0.3C13.5,13.3,12.8,13.5,12.2,13.7z M17.3,21.2
	c-2.2,1.7-5,0.2-5.5-0.3c-0.5-0.5-0.3-0.8-0.2-0.9c0,0,0.1-0.1,0.3-0.3c0.6-0.5,1.6-1.5,2.1-2.2c0.6-0.8,1.4-2.4,1.7-3
	c0.2,0,0.2,0.1,0.4,0.1c0.1,0,0.3,0,0.4,0c0.3,0.8,0.5,1.5,0.7,2.1c0.4,1.3,0.7,2.1,0.8,2.8C18,20.1,17.8,20.8,17.3,21.2z"/>
</svg>
