<?xml version="1.0" encoding="utf-8"?>
<!-- Generator: Adobe Illustrator 24.1.2, SVG Export Plug-In . SVG Version: 6.00 Build 0)  -->
<svg version="1.1" id="Livello_1" xmlns="http://www.w3.org/2000/svg" xmlns:xlink="http://www.w3.org/1999/xlink" x="0px" y="0px"
	 viewBox="0 0 32 32" style="enable-background:new 0 0 32 32;" xml:space="preserve">
<style type="text/css">
	.st0{fill:#617184;}
</style>
<path class="st0" d="M27,16.3c0.9,0.2,1.9,0,2.6-0.7c1-1,1.1-2.7,0.1-3.7c1.1-1.8,1.3-4,0.6-6l0.4-0.4c1.1-1.1,1.1-3,0-4.2
	c-1.1-1.1-3-1.1-4.2,0l-0.4,0.4c-2-0.7-4.2-0.5-6,0.6c-1.1-0.9-2.7-0.9-3.7,0.1c-0.5,0.5-0.8,1.2-0.8,2c0,0.2,0,0.4,0.1,0.6
	c-1,0.1-1.9,0.5-2.7,1.2L1.7,17.6c-0.8,0.8-1.3,1.9-1.3,3c0,1.1,0.4,2.2,1.3,3l6.7,6.7c1.7,1.7,4.4,1.7,6.1,0L25.7,19
	C26.5,18.2,26.9,17.3,27,16.3z M25.9,3.7c0.4,0.2,0.8,0.1,1.1-0.2l0.9-0.9c0.4-0.4,1-0.4,1.4,0s0.4,1,0,1.4L28.4,5
	c-0.3,0.3-0.4,0.7-0.2,1.1c0.7,1.4,0.7,3,0,4.3l-6.7-6.7C23,3.1,24.6,3.1,25.9,3.7z M9.7,28.9l-6.7-6.7c-0.4-0.4-0.7-1-0.7-1.7
	s0.2-1.2,0.7-1.7L14.4,7.6c0.9-0.9,2.4-0.9,3.3,0l6.7,6.7c0.9,0.9,0.9,2.4,0,3.3L13.1,28.9C12.1,29.9,10.7,29.9,9.7,28.9z M27,14.2
	L17.8,5c-0.2-0.2-0.2-0.4-0.2-0.6c0-0.2,0.1-0.4,0.2-0.6c0.3-0.3,0.9-0.3,1.2,0l9.2,9.2c0.3,0.3,0.3,0.9,0,1.2
	C27.9,14.5,27.3,14.5,27,14.2z M12.3,12.6l1.4,1.4c0.5,0.4,1.2,0.4,1.6,0c0.5-0.4,0.5-1.1,0-1.6l-1.4-1.4c-0.5-0.4-1.2-0.4-1.6,0
	C11.8,11.5,11.8,12.2,12.3,12.6z M11.4,13.4c-0.5-0.4-1.2-0.4-1.6,0c-0.5,0.4-0.5,1.1,0,1.6l1.4,1.4c0.5,0.4,1.2,0.4,1.6,0
	c0.5-0.4,0.5-1.1,0-1.6L11.4,13.4z M10.1,17.4L8.7,16c-0.5-0.4-1.2-0.4-1.6,0c-0.5,0.4-0.5,1.1,0,1.6l1.4,1.4c0.5,0.4,1.2,0.4,1.6,0
	C10.6,18.5,10.6,17.8,10.1,17.4z"/>
</svg>
