<?xml version="1.0" encoding="utf-8"?>
<!-- Generator: Adobe Illustrator 24.1.2, SVG Export Plug-In . SVG Version: 6.00 Build 0)  -->
<svg version="1.1" id="Livello_1" xmlns="http://www.w3.org/2000/svg" xmlns:xlink="http://www.w3.org/1999/xlink" x="0px" y="0px"
	 viewBox="0 0 32 32" style="enable-background:new 0 0 32 32;" xml:space="preserve">
<style type="text/css">
	.st0{fill:#617184;}
</style>
<path class="st0" d="M23.6,0.3H8.9c-1.7,0-3,1.3-3,3v25.3c0,1.7,1.3,3,3,3h14.7c1.7,0,3-1.3,3-3V3.3C26.6,1.7,25.2,0.3,23.6,0.3
	L23.6,0.3z M8.9,2.3h14.7c0.6,0,1,0.4,1,1v19.5H7.9V3.3C7.9,2.8,8.4,2.3,8.9,2.3L8.9,2.3z M23.6,29.7H8.9c-0.6,0-1-0.4-1-1v-4.5
	h16.7v4.5C24.6,29.2,24.1,29.7,23.6,29.7L23.6,29.7z M17.3,26.8c0,0.6-0.4,1-1,1s-1-0.4-1-1s0.4-1,1-1
	C16.8,25.8,17.3,26.2,17.3,26.8z M14.4,5.5h3.7c0.4,0,0.7-0.3,0.7-0.7s-0.3-0.7-0.7-0.7l0,0h-3.7c-0.4,0-0.7,0.3-0.7,0.7
	S14,5.5,14.4,5.5L14.4,5.5z"/>
</svg>
