<?xml version="1.0" encoding="utf-8"?>
<!-- Generator: Adobe Illustrator 24.1.2, SVG Export Plug-In . SVG Version: 6.00 Build 0)  -->
<svg version="1.1" id="Livello_1" xmlns="http://www.w3.org/2000/svg" xmlns:xlink="http://www.w3.org/1999/xlink" x="0px" y="0px"
	 viewBox="0 0 31 33" style="enable-background:new 0 0 31 33;" xml:space="preserve">
<style type="text/css">
	.st0{fill:#617184;}
</style>
<path class="st0" d="M29.4,28.5L29.4,28.5L29.4,28.5c-0.5,0-0.8,0.4-0.8,0.8l0,0v0.9L2,27.5v-1.3c0-0.5-0.4-0.8-0.8-0.8l0,0
	c-0.5,0-0.8,0.4-0.9,0.8l0,0v2.1c0,0.4,0.3,0.8,0.8,0.8l0,0l28.3,3c0.2,0,0.4-0.1,0.5-0.2c0.2-0.2,0.3-0.4,0.3-0.6l0,0v-1.8
	C30.2,28.9,29.9,28.5,29.4,28.5z M30,31.8h-0.1l0,0H30z M3.6,24.9c1,0.2,1.8-0.2,2.4-0.4c0.6-0.3,1-0.5,1.6-0.3
	c0.4,0.1,0.6,0.3,0.8,0.5c0.4,0.3,0.8,0.7,1.7,0.9c0.8,0.1,1.4-0.1,1.8-0.2c0.3-0.1,0.6-0.2,1-0.2c0.6,0,0.9,0.3,1.3,0.7
	c0.4,0.4,1,0.8,2,0.9c1.1,0.1,1.8-0.4,2.4-0.8c0.5-0.4,0.8-0.6,1.3-0.5c0.4,0.1,0.7,0.3,1.1,0.7c0.4,0.4,1,1,2,1
	c0.9,0,1.4-0.4,1.9-0.7c0.4-0.3,0.5-0.4,0.8-0.3s0.5,0.2,0.7,0.5c0.4,0.4,0.8,0.8,1.6,0.8h0.1c0.6,0,1.5-0.3,1.8-1.1
	c0.1-0.2,0.1-0.8,0-0.9s-0.9-0.2-1.1-0.1c-0.4,0.2-0.6,0.5-0.8,0.5c-0.2,0-0.3-0.1-0.6-0.4c-0.3-0.3-0.8-0.8-1.5-0.9
	c-0.9-0.2-1.5,0.2-1.9,0.5s-0.6,0.4-1,0.4s-0.6-0.2-1-0.6s-1-0.9-1.9-1.1c-1.1-0.1-1.8,0.4-2.4,0.8c-0.5,0.3-0.9,0.6-1.4,0.6
	s-0.7-0.3-1.1-0.6c-0.5-0.4-1.1-0.9-2.2-1c-0.8-0.1-1.3,0.1-1.7,0.3c-0.4,0.1-0.6,0.2-1,0.1c-0.3,0-0.5-0.2-0.8-0.4
	c-0.3-0.3-0.7-0.7-1.5-0.9c-1.1-0.3-1.9,0.1-2.6,0.4c-0.6,0.2-1,0.4-1.6,0.3C3,23.3,2,22,1.9,21.9s-0.8-0.3-1.1-0.2
	c-0.2,0.1-0.3,0.8-0.2,1C1.3,24.1,2.5,24.7,3.6,24.9z M20.7,9.5L20.7,9.5L20.7,9.5z M30.3,19.2L30.3,19.2l-8.7-9.5
	c-0.2-0.3-0.5-0.3-0.9-0.2l-5.1,1.9V8.9c1-0.4,1.6-1.3,1.6-2.4s-0.7-2-1.6-2.4V0.8l0,0c0-0.5-0.4-0.8-0.8-0.9l0,0
	c-0.5,0-0.8,0.4-0.9,0.8l0,0v3.2C12.8,4.4,12,5.4,12,6.5c0,1.2,0.8,2.1,1.8,2.5v3L1.2,16.7c-0.3,0.1-0.5,0.4-0.5,0.8l0,0l0,0V20l0,0
	c0,0.4,0.3,0.8,0.8,0.8l0,0l28.3,2.7c0.5,0,0.8-0.4,0.8-0.8l0,0c0,0,0-2,0-2.7C30.6,19.7,30.5,19.4,30.3,19.2z M13,6.5
	c0-0.9,0.5-1.7,1.6-1.7c1,0,1.6,0.8,1.6,1.7s-0.6,1.6-1.6,1.6S13,7.5,13,6.5z M28.8,21.9L2.3,19.3v-1.2l11.6-4.3v2.9
	c0,0.5,0.4,0.8,0.9,0.9l0,0c0.5,0,0.8-0.4,0.8-0.9l0,0v-3.5l5.2-1.9l8.1,8.9v1.7H28.8z"/>
</svg>
