<?xml version="1.0" encoding="utf-8"?>
<!-- Generator: Adobe Illustrator 24.1.2, SVG Export Plug-In . SVG Version: 6.00 Build 0)  -->
<svg version="1.1" id="Livello_1" xmlns="http://www.w3.org/2000/svg" xmlns:xlink="http://www.w3.org/1999/xlink" x="0px" y="0px"
	 viewBox="0 0 32 32" style="enable-background:new 0 0 32 32;" xml:space="preserve">
<style type="text/css">
	.st0{fill:#617184;}
</style>
<path class="st0" d="M7.5,15.2L7.5,15.2c0.1,0,0.3,0,0.4-0.1l0,0l13-8.9c0.2-0.1,0.3-0.3,0.3-0.6c0-0.4-0.3-0.7-0.7-0.7
	c-0.1,0-0.3,0-0.4,0.1l0,0L7.2,14C7.1,14.1,7,14.3,7,14.6C7,14.9,7.2,15.2,7.5,15.2L7.5,15.2L7.5,15.2L7.5,15.2z M7.5,11.4L7.5,11.4
	c0.1,0,0.3,0,0.4-0.1l0,0l6.2-4.2c0.2-0.1,0.3-0.3,0.3-0.5c0-0.4-0.3-0.7-0.7-0.7c-0.1,0-0.3,0-0.4,0.1l0,0l-6.2,4.2
	c-0.2,0.1-0.3,0.3-0.3,0.6C7,11.1,7.2,11.4,7.5,11.4L7.5,11.4L7.5,11.4L7.5,11.4z M31.6,26.8L28,18V4.4c0-1.4-1.1-2.6-2.6-2.6h-19
	C5,1.8,3.8,2.9,3.8,4.4V18l-3.5,8.8c-0.1,0.3-0.2,0.6-0.2,1c0,1.4,1.1,2.6,2.6,2.6H29c0.3,0,0.7-0.1,1-0.2
	C31.4,29.6,32.1,28.1,31.6,26.8z M6.1,4.4C6.1,4.2,6.3,4,6.5,4h19c0.2,0,0.4,0.2,0.4,0.4v12.8H6.1V4.4z M29.1,28.1H2.8
	c-0.1,0-0.1,0-0.1,0c-0.2-0.1-0.3-0.3-0.2-0.5l3.3-8.3h20.4l3.3,8.3v0.1C29.5,27.9,29.3,28.1,29.1,28.1z M18.7,24.8h-5.5
	c-0.6,0-1.1,0.4-1.1,1c0,0.5,0.5,1,1.1,1h5.5c0.6,0,1.1-0.4,1.1-1C19.8,25.2,19.3,24.8,18.7,24.8z"/>
</svg>
