<svg width="24" height="24" viewBox="0 0 24 24" fill="none" xmlns="http://www.w3.org/2000/svg">
<g id="icon-FAQ">
<ellipse id="Ellipse 260" cx="12.2573" cy="12.1603" rx="10.7428" ry="10.84" fill="#0970E6"/>
<ellipse id="Ellipse 258" cx="11.7428" cy="11.84" rx="10.7428" ry="10.84" fill="#0970E6"/>
<ellipse id="Ellipse 259" opacity="0.41" cx="11.7428" cy="11.84" rx="10.7428" ry="10.84" fill="url(#paint0_linear_2300_46077)"/>
<path id="Vector" d="M12.4353 5.25781C14.922 5.25781 16.6681 6.68523 16.6681 9.17207C16.6681 11.6589 14.8667 12.9079 12.4574 12.9079L12.3801 14.3353H10.1698L10.0703 11.1905H10.8992C12.8001 11.1905 14.2147 10.8448 14.2147 9.18322C14.2255 8.94902 14.186 8.71523 14.099 8.49783C14.012 8.28044 13.8795 8.08457 13.7105 7.92362C13.5416 7.76267 13.3402 7.64044 13.1201 7.56528C12.9 7.49012 12.6664 7.46382 12.4353 7.48816C12.2008 7.46274 11.9636 7.48989 11.7406 7.56768C11.5176 7.64546 11.3144 7.77196 11.1455 7.93814C10.9766 8.10432 10.8462 8.30608 10.7634 8.52902C10.6807 8.75196 10.6478 8.99057 10.6671 9.22783H8.23572C8.23572 6.94172 9.76085 5.25781 12.4353 5.25781ZM11.2528 18.7402C10.9576 18.7315 10.6715 18.6351 10.4302 18.4633C10.1889 18.2914 10.0031 18.0515 9.89612 17.7738C9.78911 17.496 9.76558 17.1925 9.82847 16.9013C9.89136 16.6101 10.0379 16.3441 10.2497 16.1364C10.4616 15.9288 10.7294 15.7887 11.0197 15.7337C11.31 15.6787 11.6099 15.7112 11.882 15.8272C12.154 15.9432 12.3862 16.1375 12.5495 16.3858C12.7128 16.6342 12.7999 16.9256 12.8001 17.2236C12.8001 17.4266 12.7598 17.6275 12.6816 17.8145C12.6033 18.0015 12.4886 18.1707 12.3443 18.3121C12.2 18.4536 12.0291 18.5643 11.8416 18.6379C11.6541 18.7114 11.4539 18.7462 11.2528 18.7402Z" fill="#0970E6"/>
<path id="Vector_2" d="M12.0275 4.9375C14.5141 4.9375 16.2603 6.36492 16.2603 8.85176C16.2603 11.3386 14.4589 12.5876 12.0496 12.5876L11.9723 14.015H9.76192L9.66246 10.8702H10.4913C12.3922 10.8702 13.8068 10.5245 13.8068 8.86291C13.8176 8.62871 13.7782 8.39492 13.6912 8.17752C13.6042 7.96013 13.4717 7.76426 13.3027 7.60331C13.1338 7.44236 12.9324 7.32012 12.7123 7.24497C12.4922 7.16981 12.2586 7.1435 12.0275 7.16785C11.7929 7.14243 11.5557 7.16958 11.3328 7.24736C11.1098 7.32515 10.9066 7.45165 10.7377 7.61783C10.5688 7.78401 10.4383 7.98577 10.3556 8.20871C10.2729 8.43165 10.24 8.67026 10.2592 8.90751H7.82788C7.82788 6.62141 9.35301 4.9375 12.0275 4.9375ZM10.845 18.4199C10.5497 18.4112 10.2636 18.3148 10.0223 18.1429C9.78105 17.9711 9.59529 17.7312 9.48828 17.4535C9.38127 17.1757 9.35774 16.8722 9.42063 16.581C9.48352 16.2898 9.63005 16.0238 9.8419 15.8161C10.0538 15.6084 10.3216 15.4684 10.6118 15.4134C10.9021 15.3584 11.202 15.3909 11.4741 15.5069C11.7462 15.6229 11.9784 15.8172 12.1417 16.0655C12.3049 16.3139 12.3921 16.6053 12.3922 16.9033C12.3923 17.1063 12.352 17.3072 12.2737 17.4942C12.1954 17.6812 12.0808 17.8504 11.9365 17.9918C11.7922 18.1332 11.6212 18.244 11.4337 18.3176C11.2463 18.3911 11.0461 18.4259 10.845 18.4199Z" fill="white"/>
</g>
<defs>
<linearGradient id="paint0_linear_2300_46077" x1="0.478549" y1="12.4394" x2="27.8981" y2="11.1836" gradientUnits="userSpaceOnUse">
<stop stop-color="white" stop-opacity="0"/>
<stop offset="1" stop-color="white"/>
</linearGradient>
</defs>
</svg>
