<?xml version="1.0" encoding="utf-8"?>
<!-- Generator: Adobe Illustrator 19.0.0, SVG Export Plug-In . SVG Version: 6.00 Build 0)  -->
<svg version="1.1" id="Livello_1" xmlns="http://www.w3.org/2000/svg" xmlns:xlink="http://www.w3.org/1999/xlink" x="0px" y="0px"
	 viewBox="-152 149.2 36 43" style="enable-background:new -152 149.2 36 43;" xml:space="preserve">
<style type="text/css">
	.st0{fill:#617184;}
</style>
<path class="st0" d="M-117,170.3c-0.3-2.2-2.4-4-4.6-3.9l-9.5,0.7l-3.2,0.2c-0.3-0.1-0.5-0.5-0.5-1c0-0.4,0.3-0.8,0.6-1
	c1.5-0.7,5.7-1.6,8.7-2.2c1.6-0.3,3-0.6,3.9-0.9c2.4-0.6,3.1-2.5,2.8-3.9c-0.3-1.5-1.7-2.8-3.8-2.4l-15.2,2.6
	c-2.8,0.5-10.1,13.2-11.5,15.8c0,0-0.1,0.2-0.3,0.5c-0.4,0.7-1.1,2-1.5,2.8c-0.5,0.9-0.5,2-0.1,2.8c0.3,0.7,0.9,1.2,1.6,1.3
	c0.1,0,0.1,0,0.2,0h29.3c1,0,2-0.5,2.8-1.4c0.9-1,1.3-2.3,1.2-3.4L-117,170.3z M-118.2,177.4c0.1,0.6-0.2,1.3-0.7,1.9
	c-0.4,0.4-0.9,0.7-1.3,0.7h-29.2c-0.1,0-0.1-0.1-0.1-0.2c-0.1-0.2-0.1-0.7,0.1-1.1c0.4-0.9,1.1-2.1,1.5-2.8c0.2-0.3,0.3-0.5,0.3-0.5
	c4.2-7.6,8.9-14.3,10.1-14.8l15.2-2.6c0.9-0.2,1.4,0.3,1.5,0.9c0.1,0.6-0.2,1.3-1.3,1.6c-0.9,0.2-2.2,0.5-3.8,0.8
	c-3.5,0.7-7.4,1.5-9.1,2.3c-1.1,0.5-1.8,1.6-1.8,2.8c0,1.4,0.9,2.7,2.2,3c0.1,0,0.2,0,0.3,0l3.4-0.2l9.5-0.7
	c1.2-0.1,2.3,1.1,2.5,2.1L-118.2,177.4L-118.2,177.4z M-124.4,170.1c-1.6,0-3.1,1.4-3.1,3.1s1.4,3.1,3.1,3.1c1.7,0,3.1-1.4,3.1-3.1
	C-121.3,171.4-122.7,170.1-124.4,170.1z M-124.4,174.8c-0.9,0-1.6-0.8-1.6-1.7s0.8-1.7,1.6-1.7c1,0,1.7,0.8,1.7,1.7
	C-122.8,174-123.5,174.8-124.4,174.8z M-117.6,185.7c0,0.5-0.4,0.9-0.9,0.9c0,0,0,0,0,0l-32.4-0.1c-0.5,0-0.9-0.4-0.9-0.9
	c0-0.5,0.4-0.9,0.9-0.9c0,0,0,0,0,0l32.4,0.1C-118,184.8-117.6,185.2-117.6,185.7z"/>
</svg>
