<!-- Generated by IcoMoon.io -->
<svg version="1.1" xmlns="http://www.w3.org/2000/svg" width="32" height="32" viewBox="0 0 32 32">
<title>weight</title>
<path d="M16 0c-8.837 0-16 7.163-16 16s7.163 16 16 16c8.837 0 16-7.163 16-16s-7.163-16-16-16zM16 30.375c-7.939 0-14.375-6.436-14.375-14.375s6.436-14.375 14.375-14.375c7.939 0 14.375 6.436 14.375 14.375s-6.436 14.375-14.375 14.375zM25.27 6.56c0.233-0.086 0.396-0.307 0.396-0.565 0-0.332-0.269-0.601-0.601-0.601-0.074 0-0.144 0.013-0.209 0.037l-7.396 2.699c-0.36-0.439-0.903-0.716-1.51-0.716-1.077 0-1.95 0.873-1.95 1.95 0 0.006 0 0.011 0 0.017l-7.27 2.619c-0.227 0.089-0.385 0.306-0.385 0.56 0 0.329 0.266 0.597 0.594 0.6 0.032 0.006 0.068 0.009 0.105 0.009s0.073-0.003 0.109-0.010l7.246-2.639c0.369 0.49 0.949 0.804 1.603 0.804 1.067 0 1.939-0.836 1.997-1.889 0-0.065 0-0.135 0-0.195l7.27-2.68zM16 10.18c-0.42 0-0.76-0.34-0.76-0.76s0.34-0.76 0.76-0.76c0.42 0 0.76 0.34 0.76 0.76s-0.34 0.76-0.76 0.76zM13.69 22.65c-0.026-0.284-0.082-0.545-0.167-0.794l-3.213-8.356c-0.096-0.348-0.352-0.621-0.682-0.738-0.114-0.041-0.237-0.063-0.366-0.063-0.472 0-0.873 0.302-1.020 0.723l-0.002 0.008c-0.56 1.62-1.14 2.91-1.69 4.17s-1.18 2.66-1.76 4.4c-0.075 0.208-0.128 0.449-0.149 0.699-0.002 0.024-0.003 0.040-0.003 0.056s0.001 0.032 0.002 0.047c0.001 0.015-0-0.002-0-0.002-0 0.004-0 0.009-0 0.014 0 0.363 0.096 0.703 0.265 0.996l-0.005-0.010c0.771 1.628 2.379 2.745 4.253 2.8 1.868-0.043 3.466-1.127 4.244-2.692 0.195-0.337 0.303-0.708 0.303-1.104 0-0.005-0-0.010-0-0.015s0 0.001 0 0.001c0.001-0.009 0.001-0.019 0.001-0.030 0-0.039-0.004-0.077-0.011-0.114l0.001 0.004zM7.63 18.13c0.54-1.21 1.090-2.45 1.64-4l3.070 8h-6.34c0.54-1.53 1.1-2.79 1.63-4zM9.16 25.4c-1.38-0.034-2.567-0.829-3.16-1.98l6.32-0.020c-0.603 1.167-1.784 1.96-3.155 2l-0.005 0zM27.38 17.85c0.001-0.015 0.002-0.032 0.002-0.050s-0.001-0.035-0.002-0.052c-0.035-0.277-0.098-0.531-0.188-0.771l-3.192-8.377c-0.123-0.472-0.545-0.814-1.047-0.814-0.473 0-0.875 0.304-1.021 0.727l-0.002 0.008c-0.56 1.62-1.14 2.91-1.69 4.16s-1.24 2.67-1.78 4.32c-0.079 0.21-0.135 0.455-0.159 0.708-0.002 0.024-0.002 0.038-0.002 0.052s0.001 0.028 0.002 0.042l-0-0.002c0 0.367 0.097 0.712 0.265 1.010l-0.005-0.010c0.753 1.643 2.384 2.764 4.276 2.764 1.873 0 3.49-1.098 4.241-2.686 0.194-0.338 0.302-0.71 0.302-1.107 0-0.004 0-0.008-0-0.012s0 0.101 0 0.091l0-0zM21.31 13.22c0.54-1.21 1.090-2.45 1.64-4l3.070 8h-6.35c0.54-1.53 1.1-2.79 1.64-4v0zM22.84 20.49c-1.38-0.034-2.567-0.829-3.16-1.98l6.32-0.020c-0.603 1.167-1.784 1.96-3.155 2l-0.005 0z"></path>
</svg>
