<!-- Generated by IcoMoon.io -->
<svg version="1.1" xmlns="http://www.w3.org/2000/svg" width="32" height="32" viewBox="0 0 32 32">
<title>bio</title>
<path d="M16 0c-8.837 0-16 7.163-16 16s7.163 16 16 16c8.837 0 16-7.163 16-16s-7.163-16-16-16zM16 30.375c-7.939 0-14.375-6.436-14.375-14.375s6.436-14.375 14.375-14.375c7.939 0 14.375 6.436 14.375 14.375s-6.436 14.375-14.375 14.375zM11.32 15.63v0c0.767-0.395 1.283-1.181 1.283-2.088 0-0.040-0.001-0.079-0.003-0.118 0.001-0.016 0.001-0.041 0.001-0.066 0-1.375-1.115-2.49-2.49-2.49-0.085 0-0.169 0.004-0.251 0.013l-3.45-0.001v10.12h3.59c0.063 0.005 0.136 0.008 0.21 0.008 1.541 0 2.79-1.249 2.79-2.79 0-0.017-0-0.034-0-0.050 0.005-0.059 0.009-0.13 0.009-0.202 0-1.083-0.699-2.002-1.671-2.331l-0.017-0.005zM7.41 11.75h2.44c0.037-0.003 0.081-0.005 0.125-0.005 0.889 0 1.61 0.721 1.61 1.61 0 0.044-0.002 0.087-0.005 0.131 0.003 0.031 0.005 0.073 0.005 0.116 0 0.911-0.739 1.65-1.65 1.65-0.023 0-0.045-0-0.068-0.001l-2.457 0v-3.5zM10 20.080h-2.59v-4h2.59c0.031-0.002 0.067-0.003 0.103-0.003 1.049 0 1.9 0.851 1.9 1.9 0 0.036-0.001 0.072-0.003 0.108 0.005 0.045 0.008 0.104 0.008 0.163 0 1.016-0.824 1.84-1.84 1.84-0.059 0-0.117-0.003-0.175-0.008l0.007 0.001zM15.13 13.73h0.98v7.24h-0.98v-7.24zM21.76 13.56c-2.076 0.023-3.75 1.711-3.75 3.79 0 2.093 1.697 3.79 3.79 3.79s3.79-1.697 3.79-3.79c0-0.014 0-0.028-0-0.042 0 0.002 0 0.002 0 0.001 0-2.071-1.679-3.75-3.75-3.75-0.028 0-0.056 0-0.084 0.001l0.004-0zM21.76 20.26c-1.562-0.016-2.822-1.286-2.822-2.85 0-0.035 0.001-0.070 0.002-0.105-0-1.552 1.262-2.815 2.82-2.815s2.82 1.263 2.82 2.82c0.001 0.033 0.002 0.071 0.002 0.11 0 1.564-1.26 2.834-2.821 2.85l-0.002-0.010zM18.69 8.73c-0.52-2.73-4.26-4.58-4.42-4.66-0.041-0.021-0.090-0.033-0.141-0.033-0.127 0-0.236 0.074-0.288 0.181-0.371 0.808-0.587 1.75-0.587 2.743 0 1.197 0.314 2.32 0.864 3.293 0.627 1.024 1.774 1.72 3.084 1.72 0.052 0 0.104-0.001 0.156-0.003l0.073 0c0.096-0 0.181-0.043 0.24-0.11 0.66-0.647 1.069-1.547 1.069-2.543 0-0.207-0.018-0.411-0.052-0.608l0.003 0.021zM17.63 10.83c-0.491-1.743-1.274-3.262-2.302-4.579-0.035-0.064-0.136-0.125-0.252-0.125-0.177 0-0.32 0.143-0.32 0.32 0 0.078 0.028 0.15 0.074 0.205 1.044 1.298 1.822 2.857 2.224 4.561-1.012 0.033-1.9-0.522-2.407-1.339-0.478-0.849-0.755-1.849-0.755-2.914 0-0.773 0.146-1.511 0.412-2.19 0.856 0.531 3.386 2.111 3.766 4.041 0.028 0.145 0.043 0.311 0.043 0.481 0 0.576-0.181 1.11-0.489 1.547l0.006-0.009z"></path>
</svg>
