<?xml version="1.0" encoding="UTF-8"?>
<svg id="Livello_1" data-name="Livello 1" xmlns="http://www.w3.org/2000/svg" viewBox="0 0 44.00002306406986 37">
  <defs>
    <style>
      .cls-1 {
        fill: #627184;
      }
    </style>
  </defs>
  <path class="cls-1" d="M19.15880012509569,31.45109939575195c.00480079650879-.51859855651855.00950050354004-1.17389869689941.00480079650879-1.8621997833252-.00480079650879-.24049949645996-.00950050354004-.48089981079102-.01420021057129-.72130012512207-.00940132141113-.52339935302734-.01880073547363-1.03719902038574-.03300094604492-1.50869941711426-.02350044250488-.79669952392578-.07069969177246-1.34359931945801-.15089988708496-1.66889953613281-.10370063781738-.4055004119873-.3346996307373-.82979965209961-.70249938964844-1.30120086669922l-.00469970703125-.00469970703125c-.26880073547363-.34889984130859-.63180160522461-.73550033569336-1.08920097351074-1.18810081481934-.49029922485352-.48089981079102-1.06550025939941-.99469947814941-1.63129997253418-1.49919891357422-.35830020904541-.31579971313477-.70730018615723-.63640022277832-1.05149936676025-.95230102539062l-.05180072784424-.05189895629883-.72139930725098-.67889976501465c-1.17400074005127-1.10780143737793-2.14060020446777-2.02250099182129-3.35710048675537-2.64480018615723-.33940029144287-.17440032958984-.68832015991211-.25930023193359-1.0419397354126-.25930023193359-.23106002807617,0-.46208000183105.03299903869629-.68838977813721.10849952697754-.25460052490234.08480072021484-.5092306137085.21680068969727-.74497032165527.40069961547852-.05658006668091-.07539939880371-.11316013336182-.15089988708496-.1744499206543-.23099899291992-.44321012496948-.59869956970215-.99485015869141-1.46150016784668-1.15516996383667-2.1875-.1555700302124-.68360042572021-.19330024719238-1.59819984436035-.19330024719238-2.31010055541992,0-.31119918823242.00943994522095-.57989978790283.01413011550903-.77789974212646l.00471973419189-.17920017242432v-.0093994140625c-.00471973419189-.39130020141602-.09899997711182-1.09370040893555-.3913197517395-1.75380039215088v-.00469970703125c-.13203001022339-.2923002243042-.32064008712769-.63173007965088-.59881019592285-.9381799697876-.27346992492676-.30642986297607-.63650989532471-.58458995819092-1.10331010818481-.75431060791016l-.240149974823-.08286952972412c-1.32961988449097-.33942985534668-2.65011978149414.01214027404785-3.45163279771805.99275970458984h-.00471997261047c-.35362103581429.42901039123535-.46677502989769,1.03719997406006-.51394163072109,1.40019989013672l-.00471960008144.00470066070557c-.0518574975431.43369960784912-.07542645744979.94289970397949-.06598735763691,1.57469940185547.00469076982699.62230014801025.03769885911606,1.27760028839111.08958515687846,1.8951997756958.04713840037584.62230014801025.11315440386534,1.20690059661865.1650114133954,1.67830085754395.13203299045563,1.12209987640381.30648297071457,2.10270023345947.54223096370697,3.03139972686768.24043399095535.92880058288574.54220408201218,1.81509971618652.93355399370193,2.74860000610352.20274007320404.48089981079102.46676993370056,1.08429908752441.80626010894775,1.7632007598877.3347499370575.67889976501465.7496600151062,1.42379951477051,1.24001002311707,2.1968994140625.84399008750916,1.30119895935059,2.11702990531921,2.39970016479492,3.1260097026825,3.24830055236816l.14147043228149.14619827270508.00468969345093.00470161437988.00943994522095.00469970703125c.04717016220093.04240036010742.08959007263184.08489990234375.13672018051147.12259864807129.45736980438232.40070152282715.83927965164185.7401008605957,1.10802984237671,1.04190063476562.14616966247559.16500091552734.21689987182617.27810096740723.24987983703613.33939933776855.01416015625.02830123901367.01887989044189.03770065307617.02360057830811.04720115661621l-.01416015625.81080055236816c-.91470003128052.30179977416992-1.57009029388428,1.15039825439453-1.58893013000488,2.14039993286133l-.01416015625,1.07959747314453h-.00940990447998l-.00471973419189.23100280761719-.02829027175903,1.80569839477539-.00471973419189.24040222167969h.24046993255615l13.10758924484253.06129837036133h.23100090026855l.00469970703125-.22629928588867v-.00469970703125l.06130027770996-3.49340057373047v-.02830123901367c0-.86280059814453-.59410095214844-1.58879852294922-1.40040016174316-1.79619979858398ZM7.51767015454516,17.52449989318848h.00468969345093l-.00468969345093.00469970703125v-.00469970703125ZM8.44178009030566,27.4768009185791l-.10844039916992-.10850143432617-.00471973419189-.00469970703125-.00944042205811-.0093994140625c-1.04669952392578-.9005012512207-2.09342956542969-1.81509971618652-2.75350952148438-2.83810043334961-.67894983291626-1.07019996643066-1.27776002883911-2.22529983520508-1.87185001373291-3.6348991394043v-.00470161437988c-.7119300365448-1.67359924316406-1.07971000671387-3.12099838256836-1.32017993927002-5.1811990737915-.10371017456055-.90520000457764-.23102998733521-2.20639991760254-.24046015739441-3.34730052947998v-.23099994659424c0-.41959953308105.01887011528015-.75899982452393.05188012123108-1.04189968109131.01885008811951-.14140033721924.04713988304138-.24520015716553.07070994377136-.3346996307373l.00471997261047-.01420021057129c.21218013763428-.24040031433105.65066003799438-.36770057678223,1.1834499835968-.22630023956299h.00471997261047c.17445015907288.03779983520508.35363006591797.19330024719238.51392006874084.55630016326904.1650402545929.38659954071045.19805026054382.78730010986328.19805026054382.86750030517578v.12729930877686c0,.01889991760254,0,.04240036010742-.00472021102905.06130027770996-.00943994522095.76840019226074-.03773021697998,2.36190032958984.24045991897583,3.58300018310547.20274019241333.8956995010376.73552989959717,1.9045991897583,1.52763986587524,2.98899936676025l.00472021102905.00469970703125c.24043989181519.32060050964355.45733976364136.59870147705078.63650989532471.80620002746582-.0754599571228.20740127563477-.13672971725464.4148006439209-.16972970962524.60340118408203v.00469970703125c-.03773021697998.24990081787109-.00944042205811.4950008392334.08013963699341.74489974975586v.00469970703125c.05658006668091.16030120849609.13200998306274.3159008026123.21690034866333.46199989318848.14615964889526.24050140380859.34417963027954.53750038146973.60821962356567.88170051574707h.00472021102905v.00469970703125c.4054799079895.54210090637207.99012994766235,1.23040008544922,1.72094011306763,2.04599952697754v.00480079650879c.38191032409668.41959953308105.76381969451904.83440017700195,1.10326957702637,1.20689964294434.22160053253174.24040031433105.42440032958984.46199989318848.60350036621094.65999984741211l.00479984283447.00469970703125.72140026092529.73550033569336.05640029907227.06360054016113.02589988708496.02580070495605.02329921722412.02349853515625c.20750045776367.20750045776367.44130039215088.31610107421875.73360061645508.32080078125.29699993133545,0,.57049942016602-.11310005187988.77799987792969-.3159008026123.20740032196045-.20269966125488.3253002166748-.47609901428223.32999992370605-.76840019226074.00479984283447-.29699897766113-.10369968414307-.57049942016602-.30650043487549-.77789878845215l-.2121000289917-.21689987182617-.56110000610352-.5752010345459c-.45729923248291-.48079872131348-1.07029914855957-1.14079856872559-1.67379951477051-1.81499862670898-.69781017303467-.78740119934082-1.24003982543945-1.42850112915039-1.61723041534424-1.92350006103516h-.00471973419189c-.20273971557617-.25930023193359-.33946990966797-.46680068969727-.42904949188232-.62230110168457.08485984802246-.24049949645996.23574924468994-.54220008850098.42904949188232-.7544002532959l.00471973419189-.00469970703125v-.00469970703125c.12259006500244-.14609909057617.20273017883301-.17910003662109.22630023956299-.18860054016113h.00471973419189s.01888084411621.00469970703125.06130027770996.02360153198242c.91940975189209.46669960021973,1.66911029815674,1.15979957580566,2.82421016693115,2.24879837036133l.00479984283447.00470161437988.77320003509521.71659851074219c.20279979705811.18860054016113.41020011901855.37250137329102.61299991607666.55630111694336.17440032958984.16029930114746.34889984130859.31589889526367.51389980316162.47150039672852h.00470066070557c.06129932403564.05659866333008.12259960174561.1083984375.18389987945557.16499900817871.5044994354248.44790077209473.9665002822876.86269950866699,1.37679958343506,1.26350021362305.40069961547852.39130020141602.68830108642578.70709991455078.90049934387207.97590065002441.24990081787109.32049942016602.29230117797852.46199989318848.29230117797852.46199989318848l.00469970703125.00469970703125v.00469970703125c.03310012817383.16029930114746.07080078125.61289978027344.09910011291504,1.26350021362305.02350044250488.62229919433594.02829933166504,1.37190055847168.03770065307617,2.10739898681641v.04710006713867c.01409912109375.63650131225586.00469970703125,1.2494010925293,0,1.74909973144531l-6.24730110168457-.03299903869629.00940036773682-.74489974975586v-.0093994140625c0-.77790069580078-.49030017852783-1.40960121154785-.82511043548584-1.78680038452148h-.00471973419189c-.38663005828857-.43379974365234-.90526008605957-.89100074768066-1.44748973846436-1.33889961242676ZM18.35729980466112,34.74649810791016l-9.22712993621826-.07069778442383.01413059234619-1.0796012878418c.00471973419189-.02829742431641.01415920257568-.05659866333008.03300952911377-.07550048828125.01887989044189-.01409912109375.04716014862061-.02829742431641.07544994354248-.02829742431641l9.12343978881836.04719924926758-.01889991760254,1.2068977355957ZM33.33639907834277,9.40318012237549c.34199905395508-.82507038116455.51790237426758-1.70941019058228.51790237426758-2.60251998901367,0-.89312028884888-.1759033203125-1.7774600982666-.51790237426758-2.60255002975464-.34180068969727-.82494020462036-.84280014038086-1.57450008392334-1.4744987487793-2.20579016208649-.63129997253418-.63160991668701-1.38100051879883-1.13264095783234-2.20610046386719-1.47448694705963-.82519912719727-.34187500178814-1.7096004486084-.51783299446106-2.6028003692627-.51783299446106s-1.7775993347168.17595799267292-2.6028003692627.51783299446106c-.82509994506836.34184598922729-1.57489967346191.84298706054688-2.206298828125,1.47462701797485l-.17720031738281.17717003822327-.17740058898926-.17739999294281C20.61389923093066.71698397397995,18.88409996030077.00054672302213,17.08040046689257.00054672302213,15.27680015561327.00054672302213,13.54689979550585.71698397397995,12.27149963376269,1.99223005771637c-1.27539920806885,1.27526986598969-1.99189949035645,3.00489985942841-1.99189949035645,4.80843007564545,0,1.80352020263672.7165002822876,3.53314018249512,1.99189949035645,4.80844020843506l8.90480041503906,8.90390014648438c.49180030822754.49169921875,1.28899955749512.49169921875,1.78070068359375,0l8.90489959716797-8.90390014648438c.63159942626953-.63129997253418,1.13269805908203-1.38090038299561,1.4744987487793-2.20592021942139ZM31.00989913937792,8.43916034698486c-.21529960632324.51949977874756-.53099822998047.99169921875-.9286994934082,1.38927936553955l-8.01449966430664,8.01355934143066-8.01449966430664-8.01355934143066c-.8031005859375-.80307960510254-1.25430011749268-1.89220952987671-1.25430011749268-3.0278697013855,0-1.13569021224976.45119953155518-2.22484016418457,1.25430011749268-3.02788996696472.80319976806641-.80302000045776,1.89239978790283-1.25415992736816,3.02820014953613-1.25415992736816,1.13579940795898,0,2.22500038146973.4511399269104,3.02809906005859,1.25415992736816l1.06780052185059,1.06769013404846c.49169921875.49167966842651,1.28899955749512.49167966842651,1.78070068359375,0l1.0679988861084-1.06789016723633c.3976001739502-.39770007133484.86969947814941-.71322011947632,1.38920021057129-.92846012115479.51950073242188-.21525979042053,1.07640075683594-.32603979110718,1.6387996673584-.32603979110718.56240081787109,0,1.11919975280762.11078000068665,1.6387996673584.32603979110718.51950073242188.21524000167847.99170112609863.53090000152588,1.38930130004883.92863011360168.39780044555664.39754986763.71360015869141.86980986595154.92879867553711,1.38925004005432.21530151367188.51952981948853.32610130310059,1.0763201713562.32610130310059,1.63866996765137,0,.56229019165039-.11079978942871,1.1191201210022-.32610130310059,1.63859033584595ZM43.93199920651659,10.78750038146973l-.00469970703125-.00470066070557c-.04719924926758-.36299991607666-.160400390625-.97118949890137-.51399993896484-1.40019989013672h-.00469970703125c-.80149841308594-.98061943054199-2.12200164794922-1.33218955993652-3.45159912109375-.99275970458984l-.24020004272461.08286952972412c-.46680068969727.16972064971924-.82979965209961.44788074493408-1.10330200195312.75431060791016-.2781982421875.30644989013672-.466796875.6458797454834-.59879684448242.9381799697876v.00469970703125c-.29230117797852.66009998321533-.38660049438477,1.36250019073486-.39130020141602,1.75380039215088v.0093994140625l.00469970703125.17920017242432c.00469970703125.19799995422363.01409912109375.46670055389404.01409912109375.77789974212646,0,.71190071105957-.03770065307617,1.62650012969971-.19330215454102,2.31010055541992-.16029739379883.72599983215332-.71189880371094,1.58880043029785-1.15509796142578,2.1875-.06130218505859.08009910583496-.11790084838867.15559959411621-.17449951171875.23099899291992-.23570251464844-.18389892578125-.49040222167969-.31589889526367-.74500274658203-.40069961547852-.22629928588867-.07550048828125-.45729827880859-.10849952697754-.68839645385742-.10849952697754-.35360336303711,0-.7025032043457.08489990234375-1.04190063476562.25930023193359-1.21649932861328.62229919433594-2.18310165405273,1.5369987487793-3.35710144042969,2.64480018615723l-.72139930725098.67889976501465-.05179977416992.05189895629883c-.34420013427734.3159008026123-.69320106506348.63650131225586-1.05150032043457.95230102539062-.56579971313477.5044994354248-1.14100074768066,1.0182991027832-1.63129997253418,1.49919891357422-.45739936828613.45260047912598-.82040023803711.83920097351074-1.08920097351074,1.18810081481934l-.00469970703125.00469970703125c-.36779975891113.47140121459961-.59879875183105.89570045471191-.70249938964844,1.30120086669922-.0802001953125.3253002166748-.12739944458008.87220001220703-.15089988708496,1.66889953613281-.01420021057129.47150039672852-.02359962463379.98530006408691-.03300094604492,1.50869941711426-.00469970703125.24040031433105-.0093994140625.48080062866211-.01420021057129.72130012512207-.00469970703125.68830108642578,0,1.34360122680664.00480079650879,1.8621997833252-.80629920959473.20740127563477-1.40040016174316.93339920043945-1.40040016174316,1.79619979858398v.02830123901367l.06130027770996,3.49340057373047v.00469970703125l.00469970703125.22629928588867h.23100090026855l13.10760116577148-.06129837036133h.24049758911133l-.00479888916016-.24040222167969-.02820205688477-1.80569839477539-.00479888916016-.23100280761719h-.0093994140625l-.01409912109375-1.07959747314453c-.01890182495117-.9900016784668-.67430114746094-1.83860015869141-1.5890007019043-2.14039993286133l-.01409912109375-.81080055236816c.00469970703125-.00950050354004.0093994140625-.01889991760254.02359771728516-.04720115661621.03290176391602-.06129837036133.10370254516602-.17439842224121.24980163574219-.33939933776855.268798828125-.30179977416992.65069961547852-.64119911193848,1.10810089111328-1.04190063476562.04710006713867-.03769874572754.08950042724609-.08019828796387.13669967651367-.12259864807129l.0093994140625-.00469970703125.00469970703125-.00470161437988.14149856567383-.14619827270508c1.00900268554688-.84860038757324,2.28200149536133-1.94710159301758,3.12599945068359-3.24830055236816.49040222167969-.77309989929199.90530014038086-1.51799964904785,1.2400016784668-2.1968994140625.33950042724609-.67890167236328.60350036621094-1.28230094909668.80630111694336-1.7632007598877.39130020141602-.93350028991699.69309997558594-1.81979942321777.93349838256836-2.74860000610352.23580169677734-.9286994934082.41020202636719-1.90929985046387.54230117797852-3.03139972686768.05179977416992-.47140026092529.1177978515625-1.05600070953369.16500091552734-1.67830085754395.05189895629883-.61759948730469.08489990234375-1.27289962768555.089599609375-1.8951997756958.0093994140625-.63179969787598-.01420211791992-1.14099979400635-.06600189208984-1.57469940185547ZM36.48229980466112,17.52449989318848v.00469970703125l-.00469970703125-.00469970703125h.00469970703125ZM25.64270019528612,34.74649810791016l-.01889991760254-1.2068977355957,9.12339973449707-.04719924926758c.02830123901367,0,.05659866333008.01419830322266.07550048828125.02829742431641.018798828125.01890182495117.02830123901367.04720306396484.03300094604492.07550048828125l.01409912109375,1.0796012878418-9.22710037231445.07069778442383ZM41.86679840085253,12.34799957275391c-.0093994140625,1.14090061187744-.13669967651367,2.44210052490234-.24039840698242,3.34730052947998-.24050140380859,2.06020069122314-.60829925537109,3.50759983062744-1.3202018737793,5.1811990737915v.00470161437988c-.59409713745117,1.40959930419922-1.19289779663086,2.56469917297363-1.87189865112305,3.6348991394043-.65999984741211,1.02300071716309-1.7067985534668,1.93759918212891-2.75349807739258,2.83810043334961l-.00940322875977.0093994140625-.00469970703125.00469970703125-.10849761962891.10850143432617c-.54220199584961.44789886474609-1.0608024597168.90509986877441-1.44750213623047,1.33889961242676h-.00469970703125c-.33480072021484.37719917297363-.82509994506836,1.0088996887207-.82509994506836,1.78680038452148v.0093994140625l.0093994140625.74489974975586-6.24729919433594.03299903869629c-.00469970703125-.49969863891602-.01409912109375-1.11259841918945,0-1.74909973144531v-.04710006713867c.00940132141113-.73549842834473.01420021057129-1.48509979248047.03770065307617-2.10739898681641.02829933166504-.65060043334961.06599998474121-1.10320091247559.09910011291504-1.26350021362305v-.00469970703125l.00469970703125-.00469970703125s.04240036010742-.14150047302246.29230117797852-.46199989318848c.21219825744629-.26880073547363.49979972839355-.5846004486084.90049934387207-.97590065002441.41029930114746-.40080070495605.87229919433594-.81559944152832,1.37680053710938-1.26350021362305.06129837036133-.05660057067871.12259864807129-.10840034484863.18389892578125-.16499900817871h.00469970703125c.16500091552734-.15560150146484.33950042724609-.31120109558105.51390075683594-.47150039672852.20280075073242-.18379974365234.41020011901855-.36770057678223.61299896240234-.55630111694336l.77320098876953-.71659851074219.00480079650879-.00470161437988c1.15509986877441-1.08899879455566,1.90479850769043-1.7820987701416,2.82419776916504-2.24879837036133.04240036010742-.01890182495117.06130218505859-.02360153198242.06130218505859-.02360153198242h.00469970703125c.02359771728516.00950050354004.10369873046875.04250144958496.22629928588867.18860054016113v.00469970703125l.00479888916016.00469970703125c.19330215454102.21220016479492.34410095214844.51390075683594.42900085449219.7544002532959-.089599609375.1555004119873-.22629928588867.36300086975098-.42900085449219.62230110168457h-.00479888916016c-.37720108032227.49499893188477-.91939926147461,1.13609886169434-1.6171989440918,1.92350006103516-.60350036621094.6742000579834-1.21649932861328,1.33419990539551-1.67380142211914,1.81499862670898l-.56110000610352.5752010345459-.21209907531738.21689987182617c-.20280075073242.20739936828613-.31130027770996.48089981079102-.3065013885498.77789878845215.00470161437988.29230117797852.12260055541992.56570053100586.33000183105469.76840019226074.20749855041504.20280075073242.48099899291992.3159008026123.77799987792969.3159008026123.29229927062988-.00469970703125.52610015869141-.11330032348633.73360061645508-.32080078125l.02330017089844-.02349853515625.02589797973633-.02580070495605.05640029907227-.06360054016113.72140121459961-.73550033569336.00479888916016-.00469970703125c.17910003662109-.19799995422363.38190078735352-.41959953308105.60350036621094-.65999984741211.33950042724609-.37249946594238.72140121459961-.78730010986328,1.10329818725586-1.20689964294434v-.00480079650879c.73080062866211-.81559944152832,1.31540298461914-1.50389862060547,1.72090148925781-2.04599952697754v-.00469970703125h.00469970703125c.26409912109375-.34420013427734.46210098266602-.64119911193848.60829925537109-.88170051574707.08480072021484-.14609909057617.16030120849609-.30169868469238.21680068969727-.46199989318848v-.00469970703125c.089599609375-.24989891052246.11790084838867-.49499893188477.0802001953125-.74489974975586v-.00469970703125c-.03300094604492-.18860054016113-.09429931640625-.39599990844727-.16970062255859-.60340118408203.17910003662109-.20749855041504.39599990844727-.48559951782227.63650131225586-.80620002746582l.00469970703125-.00469970703125c.79209899902344-1.08440017700195,1.32490158081055-2.09329986572266,1.5275993347168-2.98899936676025.27820205688477-1.22109985351562.24990081787109-2.81459999084473.24050140380859-3.58300018310547-.00469970703125-.01889991760254-.00469970703125-.04240036010742-.00469970703125-.06130027770996v-.12729930877686c0-.0802001953125.03299713134766-.48090076446533.197998046875-.86750030517578.16030120849609-.36299991607666.33950042724609-.51850032806396.51390075683594-.55630016326904h.00479888916016c.53269958496094-.14140033721924.9712028503418-.01410007476807,1.18339920043945.22630023956299l.00470352172852.01420021057129c.02359771728516.08949947357178.05189895629883.19329929351807.07069778442383.3346996307373.03300094604492.28289985656738.05189895629883.62230014801025.05189895629883,1.04189968109131v.23099994659424Z"/>
</svg>