<?xml version="1.0" encoding="utf-8"?>
<!-- Generator: Adobe Illustrator 24.1.2, SVG Export Plug-In . SVG Version: 6.00 Build 0)  -->
<svg version="1.1" id="Livello_1" xmlns="http://www.w3.org/2000/svg" xmlns:xlink="http://www.w3.org/1999/xlink" x="0px" y="0px"
	 viewBox="0 0 46.4 41" style="enable-background:new 0 0 46.4 41;" xml:space="preserve">
<style type="text/css">
	.st0{fill:#617184;}
</style>
<path class="st0" d="M39.6,31.3c0.8-0.3,1.5-0.6,2-0.9c1.5-1,2.4-2.7,2.4-2.8c0.3-0.6-0.2-1.3-0.5-1.4c0,0-3.9-1.9-3.7-5.5
	c0-0.3-0.1-0.5-0.3-0.7c-0.2-0.2-0.5-0.3-0.7-0.3c-0.2,0-4.1,0.1-6.4,4.4c-0.8,0.1-1.7,0.4-2.4,0.9L29.7,25
	c-1.3,0.9-2.3,2.1-2.6,2.6c-1,0.1-2,0.4-2.9,1c0,0-1.8,1.3-2.9,2.9c-0.2,0.1-0.5,0.3-0.6,0.5c-0.2,0.5,0,1.1,0.5,1.3
	c0.1,0.1,3.6,1.8,3.7,5.6c0,0.5,0.5,1,1,1c0,0,0.2,0,0.5,0c1.2-0.2,4.2-0.9,6.1-4.5c0,0,0.1,0,0.1,0c0.5-0.1,0.9-0.2,1.4-0.3
	c0.8-0.3,1.5-0.6,2-0.9c1.1-0.7,1.9-1.9,2.2-2.5C38.1,31.7,39.1,31.5,39.6,31.3z M37.8,21.8c0.2,1.3,0.7,2.5,1.4,3.4l-4-1
	c-0.2,0-0.4-0.1-0.6-0.1C35.7,22.6,37,22,37.8,21.8z M30.8,26.7l0.1-0.1c1.1-0.7,2.5-0.9,3.8-0.6l6.7,1.7c-0.3,0.3-0.6,0.7-1.1,1
	c-0.4,0.2-0.9,0.5-1.5,0.7c-0.6,0.2-1.3,0.3-2,0.3l-7.3-1.9c0,0-0.1,0-0.1,0C29.8,27.4,30.3,27,30.8,26.7z M26.8,37.9
	c-0.3-1.6-1-2.9-1.8-3.9l4.9,1.3c0.1,0,0.2,0,0.3,0.1C29.1,37,27.7,37.6,26.8,37.9z M34.8,32.5c-0.4,0.2-0.9,0.5-1.5,0.7
	c-0.9,0.3-1.9,0.4-2.9,0.1l-6.6-1.7c0.5-0.4,1.5-1.3,1.5-1.3c0.8-0.5,1.8-0.8,2.8-0.7c0,0,7.6,1.9,7.7,2
	C35.5,31.9,35.2,32.2,34.8,32.5z M21.1,1.5L21.1,1.5C21.1,1.6,21,1.6,21.1,1.5L21,1.6c-3.1,2.4-3.8,7.2-4.2,10.4l-0.1,0.6
	c0,0.3-0.2,0.6-0.5,0.8s-0.6,0.3-0.9,0.2l-0.6-0.1c-3.2-0.5-7.9-1.3-11.2,1l0,0l0,0l0,0c0,0,0,0-0.1,0.1c-1.6,1.3-3,4-1.8,5.6
	C1.9,20.9,2.4,21,2.8,21c-0.8,1.7-0.5,2.7-0.1,3.2c0.4,0.6,1.2,0.7,1.6,0.7c-0.3,0.6-0.6,1.8,0,2.7C5,28.6,6.3,28.6,7,28.5
	c-0.1,0.5-0.3,1.2,0.2,1.8c0.4,0.5,1.2,1.1,3.1,0.9c-0.1,0.3-0.1,0.9,0.3,1.4c1.2,1.6,4.2,1,5.9-0.1c0,0,0,0,0.1-0.1l0,0l0,0l0,0
	c3.1-2.4,3.8-7.2,4.2-10.4l0.1-0.6c0-0.3,0.2-0.6,0.5-0.8s0.6-0.3,0.9-0.2l0.6,0.1c3.2,0.5,7.9,1.3,11.2-1l0,0l0,0l0,0
	c0,0,0,0,0.1-0.1c1-0.9,2-2.3,2.2-3.7c0.1-0.7,0-1.4-0.4-2c-0.4-0.5-0.9-0.6-1.2-0.7c0.8-1.7,0.5-2.7,0.1-3.2
	c-0.4-0.6-1.2-0.7-1.6-0.7c0.3-0.6,0.6-1.8,0-2.7c-0.7-0.9-1.9-0.9-2.6-0.8c0.1-0.5,0.3-1.2-0.2-1.8C30,3,29.2,2.5,27.4,2.7
	c0.1-0.3,0.1-0.9-0.3-1.4C25.9-0.3,22.8,0.3,21.1,1.5C21.2,1.5,21.1,1.5,21.1,1.5z M25.7,4.3c0.5,0.5,1.2,0.7,1.8,0.6
	c0.5-0.1,0.9-0.1,1.1-0.1c0,0,0,0.1,0,0.1c-0.2,0.6-0.1,1.4,0.3,1.9s1.1,0.8,1.7,0.7c0.4-0.1,0.7,0,0.8,0c0,0.1-0.1,0.4-0.3,0.8
	C31,8.9,31,9.6,31.4,10.2c0.4,0.5,1,0.9,1.7,0.9c0,0,0.1,0,0.1,0c0,0.2-0.1,0.5-0.4,1c-0.3,0.6-0.3,1.3,0.1,1.9
	c0.3,0.5,0.9,0.9,1.5,0.9c0,0.5-0.6,1.8-1.5,2.5l0,0l0,0c0,0,0,0,0,0c-2.5,1.8-6.8,1.1-9.6,0.6L22.6,18c-0.9-0.1-1.8,0.1-2.5,0.6
	c-0.7,0.5-1.2,1.3-1.3,2.2l-0.1,0.6c-0.4,2.8-1,7.2-3.4,9c0,0,0,0,0,0l0,0l0,0l0,0c-1,0.7-2.3,0.8-2.8,0.7c0.1-0.6,0-1.2-0.5-1.7
	c-0.5-0.5-1.2-0.7-1.8-0.6C9.6,29,9.3,29,9.1,28.9c0,0,0-0.1,0-0.1c0.2-0.6,0.1-1.4-0.3-1.9c-0.4-0.5-1.1-0.8-1.7-0.7
	c-0.4,0.1-0.7,0-0.8,0c0-0.1,0.1-0.4,0.3-0.8c0.3-0.6,0.2-1.3-0.2-1.9c-0.4-0.5-1-0.9-1.7-0.9c0,0-0.1,0-0.1,0c0-0.2,0.1-0.5,0.4-1
	c0.3-0.6,0.3-1.3-0.1-1.9c-0.3-0.5-0.9-0.9-1.5-0.9c0-0.5,0.6-1.8,1.5-2.5l0,0l0,0c0,0,0,0,0,0c2.5-1.8,6.8-1.1,9.6-0.6l0.6,0.1
	c0.9,0.1,1.8-0.1,2.5-0.6c0.7-0.5,1.2-1.3,1.3-2.2l0.1-0.6c0.4-2.8,1-7.2,3.4-9c0,0,0,0,0,0l0,0l0,0l0,0c1-0.7,2.3-0.8,2.8-0.7
	C25.1,3.2,25.3,3.8,25.7,4.3z M20.3,12.9c-0.6,0.5-1.1,1.1-1.4,1.9l-0.3,1c-0.1,0.3-0.4,0.5-0.7,0.5l-0.9,0c-0.9,0-1.6,0.3-2.3,0.7
	l-1.5,1.1c-0.4,0.3-0.4,0.8-0.2,1.1c0.3,0.4,0.8,0.4,1.1,0.2l1.5-1.1c0.4-0.3,0.9-0.4,1.4-0.5l0.5,0l-0.2,0.7
	c-0.2,0.4-0.4,0.8-0.8,1.1l-1.4,1c-0.4,0.3-0.4,0.8-0.2,1.1c0.3,0.4,0.8,0.4,1.1,0.2l1.4-1c0.6-0.5,1.1-1.1,1.4-1.9l0.3-1
	c0.1-0.3,0.4-0.5,0.7-0.5l0.9,0c0.9,0,1.6-0.3,2.3-0.7l1.5-1.1c0.2-0.1,0.3-0.3,0.3-0.5c0-0.2,0-0.4-0.1-0.6
	c-0.3-0.4-0.8-0.4-1.1-0.2l-1.5,1.1c-0.4,0.3-0.9,0.4-1.4,0.5l-0.5,0l0.2-0.7c0.2-0.4,0.4-0.8,0.8-1.1l1.4-1
	c0.2-0.1,0.3-0.3,0.3-0.5c0-0.2,0-0.4-0.1-0.6c-0.3-0.4-0.8-0.4-1.1-0.2L20.3,12.9z"/>
</svg>
