<?xml version="1.0" encoding="utf-8"?>
<!-- Generator: Adobe Illustrator 24.1.2, SVG Export Plug-In . SVG Version: 6.00 Build 0)  -->
<svg version="1.1" id="Livello_1" xmlns="http://www.w3.org/2000/svg" xmlns:xlink="http://www.w3.org/1999/xlink" x="0px" y="0px"
	 viewBox="0 0 45.7 42.7" style="enable-background:new 0 0 45.7 42.7;" xml:space="preserve">
<style type="text/css">
	.st0{fill:#617184;}
</style>
<g>
	<path class="st0" d="M10.9,4.4c0.7,0,1.1-0.6,1.1-1.1V2.4h3.2v0.9c0,0.7,0.4,1.1,1,1.1c0.7,0,1.1-0.6,1.1-1.1V1.3
		c0-0.7-0.6-1.1-1.1-1.1h-5.3c-0.7,0-1.1,0.6-1.1,1.1v1.9C9.8,3.8,10.2,4.4,10.9,4.4z"/>
	<path class="st0" d="M22.4,18.3l-5.1-3.7v-6c0.9-0.2,1.6-1,1.6-2c0-1.1-0.9-2-2-2h-6.3c-1.1,0-2,0.9-2,2c0,1,0.7,1.8,1.6,2v5.9
		l-5.1,3.7c-0.7,0.5-1.1,1.3-1.1,2.1v19.1c0,1.6,1.2,2.8,2.8,2.8h14.2c1.6,0,2.8-1.2,2.8-2.8l0-19.1C23.5,19.4,23.1,18.7,22.4,18.3z
		 M21.3,23.9v11.4H10.8V23.9H21.3z M5.8,20.4c0-0.1,0.1-0.3,0.2-0.4l5.5-4c0.3-0.2,0.5-0.6,0.5-0.9V7.6c0-0.3-0.1-0.6-0.4-0.9h3.7
		C15.1,6.9,15,7.2,15,7.6v7.6c0,0.3,0.1,0.7,0.4,0.9l5.6,4c0.1,0.1,0.2,0.2,0.2,0.3v1.4H9.8c-0.6,0-1.1,0.4-1.1,1.1v13.6
		c0,0.6,0.4,1.1,1.1,1.1h11.5v1.9c0,0.3-0.2,0.6-0.6,0.6H6.4c-0.3,0-0.6-0.3-0.6-0.6V20.4z"/>
	<path class="st0" d="M42.7,25.5c-0.3-0.3-0.6-0.4-0.8-0.4H25.6c-0.3,0-0.6,0.1-0.8,0.4c-0.3,0.2-0.5,0.6-0.3,0.9l2.7,14.9
		c0.1,0.4,0.5,0.8,1.1,0.8h10.9c0.6,0,1-0.3,1.1-0.9l2.7-15C43,26.1,43,25.8,42.7,25.5z M39.4,33.6l-1.1,6.5h-9.1L28,33.6H39.4z
		 M40.4,27.3l-0.7,4.1H27.6l-0.7-4.1H40.4z"/>
</g>
</svg>
