<?xml version="1.0" encoding="utf-8"?>
<!-- Generator: Adobe Illustrator 24.1.2, SVG Export Plug-In . SVG Version: 6.00 Build 0)  -->
<svg version="1.1" id="Livello_1" xmlns="http://www.w3.org/2000/svg" xmlns:xlink="http://www.w3.org/1999/xlink" x="0px" y="0px"
	 viewBox="0 0 28 32" style="enable-background:new 0 0 28 32;" xml:space="preserve">
<style type="text/css">
	.st0{fill:#617184;}
</style>
<path class="st0" d="M25.4,4.5c-3.1-3.8-13-6.7-20.7-2.3c-3.8,2.2-4.5,5-4.5,7c0,0,0,0.5,0,0.6c0,5,0.8,7.9,2.8,9.2s3.6,3,4.5,4.6
	s2.1,3.7,4.1,5.4s4.8,3,7.1,3c1,0,2.8-0.5,2.8-0.5c3.8-1.3,5.9-5.5,6.1-16v-0.1C28.2,11.1,27.3,6.9,25.4,4.5z M21,29.8
	c-2.7,0.9-5.4,0.2-8.2-2.2c-1.8-1.5-3-3.5-3.7-4.9S6.3,19,4,17.4c-0.9-0.6-1.4-1.9-1.7-4c0.7,0.5,1.5,1,2.3,1.2l0,0
	c0.9,0.3,2.4,1.9,5.9,6.4c2.6,3.4,5.3,5.2,7.9,5.4h0.3l0,0c1.5,0,2.9-0.6,3.9-1.6l0,0c1-0.8,1.9-1.7,2.6-2.8l0,0
	C24.5,27.1,23.2,29,21,29.8L21,29.8z M25.8,15.2c-0.5,3.7-2,6.6-4.4,8.3l-0.1,0.1c-0.7,0.6-1.6,1-2.6,1c-0.1,0-0.2,0-0.3,0l0,0
	c-2-0.1-4.2-1.7-6.5-4.6c-4.2-5.6-5.5-6.7-6.8-7.1l0,0C3.3,12.4,2,10.9,2,9.1s1.2-3.9,3.6-5.3C12.3,0,21.2,2.3,24,5.6
	C25.6,7.6,26.3,11.4,25.8,15.2z M10.3,5.7c-2,0-3.7,1.1-3.7,2.5s1.7,2.5,3.7,2.5S14,9.6,14,8.2S12.3,5.7,10.3,5.7z M10.3,9.6
	C9,9.6,8,9,8,8.2s1-1.4,2.3-1.4s2.4,0.6,2.4,1.4S11.6,9.6,10.3,9.6z"/>
</svg>
