<?xml version="1.0" encoding="utf-8"?>
<!-- Generator: Adobe Illustrator 24.1.2, SVG Export Plug-In . SVG Version: 6.00 Build 0)  -->
<svg version="1.1" id="Livello_1" xmlns="http://www.w3.org/2000/svg" xmlns:xlink="http://www.w3.org/1999/xlink" x="0px" y="0px"
	 viewBox="0 0 45 42.2" style="enable-background:new 0 0 45 42.2;" xml:space="preserve">
<style type="text/css">
	.st0{fill:#617184;}
</style>
<path class="st0" d="M43.9,19.1c-0.3,0.4-0.7,0.6-1.2,0.6c-0.3,0-0.6-0.1-0.8-0.3L22.5,5.5L3,19.4c-0.7,0.4-1.6,0.2-2-0.5
	c-0.4-0.6-0.2-1.4,0.3-1.8L21.6,2.6c0.5-0.4,1.2-0.4,1.7,0l20.3,14.5C44.2,17.6,44.4,18.5,43.9,19.1z M6.5,11C7.3,11,8,10.4,8,9.6
	V5.2h4.4c0.8,0,1.5-0.6,1.5-1.5c0-0.8-0.6-1.5-1.5-1.5H6.5C5.7,2.3,5.1,3,5.1,3.8v5.8C5.1,10.4,5.7,11,6.5,11z M38.4,19.7
	c-0.8,0-1.5,0.6-1.5,1.5v14.5c0,0.8-0.6,1.5-1.5,1.5h-5.8V27c0-0.8-0.6-1.5-1.5-1.5H16.7c-0.8,0-1.5,0.6-1.5,1.5v10.2H9.4
	c-0.8,0-1.5-0.6-1.5-1.5V21.2c0-0.8-0.6-1.5-1.5-1.5c-0.8,0-1.5,0.6-1.5,1.5v14.5C5.1,38.1,7,40,9.4,40h7.3c0.8,0,1.5-0.6,1.5-1.5
	V28.4h8.7v10.2c0,0.8,0.6,1.5,1.5,1.5h7.3c2.4,0,4.4-1.9,4.4-4.4V21.2C39.9,20.4,39.2,19.7,38.4,19.7z"/>
</svg>
