<?xml version="1.0" encoding="utf-8"?>
<!-- Generator: Adobe Illustrator 24.1.2, SVG Export Plug-In . SVG Version: 6.00 Build 0)  -->
<svg version="1.1" id="Livello_1" xmlns="http://www.w3.org/2000/svg" xmlns:xlink="http://www.w3.org/1999/xlink" x="0px" y="0px"
	 viewBox="0 0 32 32" style="enable-background:new 0 0 32 32;" xml:space="preserve">
<style type="text/css">
	.st0{fill:#617184;}
</style>
<path class="st0" d="M30.9,11.2c0.3,0,0.6-0.1,0.8-0.3s0.3-0.5,0.3-0.8v-5c0-0.3-0.1-0.6-0.3-0.8c-0.2-0.2-0.5-0.3-0.8-0.3H7.7
	c-2.1,0-4,0.8-5.5,2.3S0,9.8,0,11.9v9c0,2.1,0.8,4,2.3,5.5s3.4,2.3,5.5,2.3h23.2c0.3,0,0.6-0.1,0.8-0.3s0.3-0.5,0.3-0.8v-10
	c0-0.3-0.1-0.6-0.3-0.8s-0.5-0.3-0.8-0.3c-0.7,0-1.4-0.3-1.9-0.8c-0.5-0.5-0.8-1.2-0.8-1.9c0-0.7,0.3-1.4,0.8-1.9
	S30.2,11.2,30.9,11.2C30.9,11.2,30.9,11.2,30.9,11.2z M2.1,20.9v-9c0-1.5,0.6-2.9,1.6-4s2.5-1.6,4-1.6h2.1C8.9,6.9,8.2,7.8,7.7,8.8
	S6.8,10.9,6.8,12v8.8c0,1.1,0.3,2.2,0.8,3.2c0.5,1,1.3,1.9,2.2,2.5H7.7c-1.5,0-2.9-0.6-4-1.6S2.1,22.4,2.1,20.9L2.1,20.9L2.1,20.9z
	 M29.9,18.6v7.9H14.3c-1.6,0-3.1-0.6-4.2-1.6s-1.8-2.6-1.8-4.1V12c0-1.6,0.7-3,1.8-4.1s2.6-1.7,4.2-1.6h15.6v3
	c-1.1,0.2-2,0.8-2.7,1.7s-1,1.9-1,3s0.4,2.1,1,3C27.9,17.8,28.8,18.4,29.9,18.6L29.9,18.6L29.9,18.6z M21.2,15.5
	c-2,0-3.6,1.6-3.6,3.6c0,2,1.6,3.6,3.6,3.6c2,0,3.6-1.6,3.6-3.6C24.8,17.1,23.2,15.5,21.2,15.5z M21.2,21.5c-1.3,0-2.4-1.1-2.4-2.4
	c0-1.3,1.1-2.4,2.4-2.4c1.3,0,2.4,1.1,2.4,2.4C23.6,20.4,22.5,21.5,21.2,21.5z M15.2,10c-1.3,0-2.4,1.1-2.4,2.4
	c0,1.3,1.1,2.4,2.4,2.4c1.3,0,2.4-1.1,2.4-2.4C17.6,11.1,16.5,10,15.2,10z M15.2,13.9c-0.8,0-1.5-0.7-1.5-1.5c0-0.8,0.7-1.5,1.5-1.5
	c0.8,0,1.5,0.7,1.5,1.5C16.8,13.2,16.1,13.9,15.2,13.9z"/>
</svg>
