<?xml version="1.0" encoding="utf-8"?>
<!-- Generator: Adobe Illustrator 24.1.2, SVG Export Plug-In . SVG Version: 6.00 Build 0)  -->
<svg version="1.1" id="Livello_1" xmlns="http://www.w3.org/2000/svg" xmlns:xlink="http://www.w3.org/1999/xlink" x="0px" y="0px"
	 viewBox="0 0 32 32" style="enable-background:new 0 0 32 32;" xml:space="preserve">
<style type="text/css">
	.st0{fill:#617184;}
</style>
<path class="st0" d="M29.6,9.8V8.9c0-2.2-1.8-3.9-3.9-3.9h-7.6c0,0,0,0,0,0c-0.8,0-1.5,0.2-2.1,0.6l0,0C15.4,5.2,14.7,5,13.9,5
	c0,0,0,0,0,0H6.3C4.1,5,2.4,6.8,2.4,8.9v0.8c-1.2,0.5-2.1,1.6-2.1,3v5.9c0,2.7,2.2,4.8,4.8,4.8h1.4l-1,2.1c-0.1,0.1-0.1,0.3-0.1,0.4
	c0,0.6,0.4,1,1,1c0.4,0,0.7-0.2,0.9-0.5l0,0l1.5-3h14.6l1.5,3c0.2,0.3,0.5,0.6,0.9,0.6c0.6,0,1-0.4,1-1c0-0.2,0-0.3-0.1-0.5l0,0
	l-1-2.1h1.4c2.7,0,4.8-2.2,4.8-4.8v-5.9C31.7,11.4,30.9,10.2,29.6,9.8L29.6,9.8L29.6,9.8z M25.7,7c1.1,0,1.9,0.9,1.9,1.9l0,0v1.4
	c-1,0.2-1.8,1-1.8,2.1v3.9h-9.1V7.6C17,7.2,17.5,7,18.1,7h0H25.7z M6.3,7h7.6c0.5,0,1,0.2,1.4,0.6l0,0v8.8H6.2v-3.9
	c0-1.1-0.8-1.9-1.8-2.1l0,0V8.9C4.4,7.9,5.2,7,6.3,7L6.3,7L6.3,7z M29.7,18.6c0,1.6-1.3,2.8-2.8,2.8H5.1c-1.6,0-2.8-1.3-2.8-2.8l0,0
	v-5.9c0-0.6,0.4-1,0.9-1.1l0,0l0,0h0.9c0.4,0,0.8,0.4,0.8,0.8V17l0,0c0,0.4,0.3,0.7,0.7,0.7l0,0h20.9l0,0c0.4,0,0.7-0.3,0.7-0.7l0,0
	l0,0v-4.6c0-0.4,0.4-0.8,0.8-0.8l0.9,0c0.5,0.1,0.9,0.6,0.9,1.1v0L29.7,18.6z"/>
</svg>
