<?xml version="1.0" encoding="utf-8"?>
<!-- Generator: Adobe Illustrator 24.1.2, SVG Export Plug-In . SVG Version: 6.00 Build 0)  -->
<svg version="1.1" id="Livello_1" xmlns="http://www.w3.org/2000/svg" xmlns:xlink="http://www.w3.org/1999/xlink" x="0px" y="0px"
	 viewBox="0 0 25 33" style="enable-background:new 0 0 25 33;" xml:space="preserve">
<style type="text/css">
	.st0{fill:#617184;}
</style>
<path class="st0" d="M24.5,30.9l-3.6-13.8c0-0.1-0.1-0.2-0.2-0.3l0,0L17.5,13l-0.9-2.9l1.2-0.4c0,0.2-0.1,0.6-0.1,0.6
	c0,0.4,0.5,1,1.1,0.6l0,0c1.5-1,2.7-2.7,2.6-3.8c-0.1-0.8-1-2.5-1.2-2.7c-0.8-1-1-1-0.5-3.1c0.1-0.6,0-1.1-0.5-1.1l0,0
	c-1.2,0-2.1,0.3-2.6,1c-0.3,0.3-0.5,0.7-0.6,1.1l0,0L14.4,3l-0.1-0.2c-0.1-0.3-0.4-0.7-0.9-0.5l0,0l-2.2,0.6
	c-0.6,0.2-0.6,0.4-0.6,0.7c0,0.1,0,0.4,0,0.4H1.2C0.5,4,0.5,4.2,0.5,4.7l0,0l2.8,21c0,0.3,0.3,0.6,0.5,0.6l0,0
	c0.7,0.2,1.3,0.3,2,0.4l0.6,4.5c0.1,0.4,0.4,0.7,0.8,0.7h2.7c0.4,0,0.7-0.3,0.7-0.7l0,0l0.6-4.6c0.7-0.1,1.8-0.4,1.8-0.4
	c0.3-0.1,0.5-0.3,0.6-0.6l0,0L15,16l1.8,2.1L20.7,32c0.1,0.3,0.3,0.4,0.8,0.3c0.6-0.1,2.5-0.6,2.5-0.6
	C24.3,31.6,24.6,31.3,24.5,30.9L24.5,30.9L24.5,30.9z M22.8,30.5l-1,0.2l-3.7-13.1c0-0.1-0.1-0.2-0.1-0.3l0,0l-2.9-3.4l-2.8-9.8
	l0.8-0.2l3.1,9.8c0,0.1,0.1,0.2,0.1,0.3l0,0l3.2,3.7L22.8,30.5z M14.8,4.4l1-0.3c0.1,0.9,1.6,3,1.7,3.3l0,0l0.3,0.9l-1.7,0.5
	L14.8,4.4z M18.3,1.9L18.3,1.9C18,3.7,18.2,4.1,18.9,5c0.4,0.5,1.3,1.7,1.2,2.5c-0.1,0.5-0.4,1-0.8,1.3l0,0c0.1-1.2-0.9-2.7-1.5-3.2
	C17.1,4.9,16.5,2.5,18.3,1.9z M13.7,14.5c0,0.1,0,0.1-0.1,0.2l0,0L12.1,25c-1.1,0.2-2.4,0.4-3.7,0.4S4.7,25,4.7,25L2.1,5.4h9
	L13.7,14.5L13.7,14.5z M9.7,26.9l-0.5,3.4H7.8l-0.5-3.4H9.7z"/>
</svg>
