<?xml version="1.0" encoding="utf-8"?>
<!-- Generator: Adobe Illustrator 24.1.2, SVG Export Plug-In . SVG Version: 6.00 Build 0)  -->
<svg version="1.1" id="Livello_1" xmlns="http://www.w3.org/2000/svg" xmlns:xlink="http://www.w3.org/1999/xlink" x="0px" y="0px"
	 viewBox="0 0 42 32" style="enable-background:new 0 0 42 32;" xml:space="preserve">
<style type="text/css">
	.st0{fill:#617184;}
</style>
<path class="st0" d="M9.7,0L9.7,0L9.7,0L9.7,0z M40.4,16.8L40.4,16.8L40.4,16.8L40.4,16.8z M2.4,28.2L2.4,28.2L2.4,28.2L2.4,28.2z
	 M40.7,19.4c0.7-0.1,1.2-0.5,1.2-1.4c0-1.1-0.8-1.3-1.5-1.2L38,17.2c-0.8-5-3.8-15-3.9-15.4C33.8,0.7,32.9,0,31.8,0
	C31,0,30.3,0.4,30,0.9l-4.3,5.8h-9.3l-4.3-5.8C11.6,0.4,11,0,9.7,0C8.9,0.1,8.2,0.9,7.9,1.7C7.8,2.1,4.8,12.1,4,17.1l-2.5-0.3
	c-0.9,0-1.3,0.5-1.4,1.2c-0.1,0.7,0.2,1.3,1.3,1.4l2.7,0.4c0.2,1.8,0.8,3.4,1.7,4.8l-4,1.2c-0.9,0.3-1.1,0.9-1,1.6
	c0.2,0.8,0.7,1.2,1.7,0.9l5-1.5c3.4,3.2,8,5.2,13.1,5.2c0.2,0,0.9,0,1,0c5.1,0,9.7-2,13.1-5.2l5,1.5c0.7,0.2,1.2,0,1.6-0.8
	c0.3-0.8-0.1-1.4-0.9-1.7l-4-1.2c0.9-1.4,1.5-3,1.7-4.7L40.7,19.4z M21,23c-2.1,0-3.8-1.7-3.8-3.8h7.6C24.8,21.3,23.1,23,21,23z
	 M30,21.1l5.7-0.8c-0.3,1.4-0.8,2.7-1.6,3.7l-4-1.2c-0.7-0.1-1.6,0.2-1.8,1c-0.2,0.7,0.4,1.4,1,1.6l2.6,0.8
	c-2.8,2.1-6.3,3.4-10.1,3.5v-5.5c2.3-0.2,4.2-2.1,4.3-4.5V19c0-1-0.8-1.8-1.8-1.8h-6.8c-1,0-1.8,0.8-1.8,1.8v0.7
	c0.1,2.4,2,4.3,4.3,4.5v5.5c-3.8-0.1-7.3-1.4-10.1-3.5l2.6-0.8c0.8-0.3,1.2-1,0.9-1.7c-0.3-0.8-1.1-1.1-1.7-0.9l-4,1.2
	c-0.7-1-1.3-2.3-1.6-3.4v-0.1l5.7,0.8c0.8,0.1,1.6-0.5,1.7-1.3c0.1-0.8-0.3-1.4-1.3-1.5l-6.1-0.9c0.6-3.8,2.8-11.3,3.8-15l4.2,5.5
	c0.4,0.6,1.1,1,1.9,1h10c0.8,0,1.5-0.4,1.9-1L32,2.6c1.1,3.6,3.2,11.2,3.8,14.9l-6.1,0.9c-0.9,0.1-1.4,0.4-1.3,1.4
	C28.5,21.1,29.3,21.1,30,21.1z"/>
</svg>
