<?xml version="1.0" encoding="utf-8"?>
<!-- Generator: Adobe Illustrator 24.1.2, SVG Export Plug-In . SVG Version: 6.00 Build 0)  -->
<svg version="1.1" id="Livello_1" xmlns="http://www.w3.org/2000/svg" xmlns:xlink="http://www.w3.org/1999/xlink" x="0px" y="0px"
	 viewBox="0 0 32 32" style="enable-background:new 0 0 32 32;" xml:space="preserve">
<style type="text/css">
	.st0{fill:#617184;}
</style>
<path class="st0" d="M27.2,5.3c0-0.1,0-4.4,0-4.4c0-0.5-0.4-0.9-0.8-0.9H10.3C9.9,0,9.5,0.4,9.5,0.9V5L6,10.7
	c-0.1,0.2-0.1,0.3-0.1,0.5c0,0,0,0,0,0.1c0,0,0,1.7,0,4.2c-0.8-0.2-1.6-0.2-2.2,0.1c-1.5,0.6-2.7,2.3-3.1,4.8
	c-0.4,2.3-0.2,5,0.6,7.1c0.7,1.9,1.8,3.3,3.2,3.9c0.5,0.2,1,0.4,1.6,0.4v0.1c0,0,0.2,0,0.5,0c0.1,0,0.2,0,0.2,0c0.1,0,0.3,0,0.4,0
	c5-0.1,24.2-0.2,24.2-0.2c0.5,0,0.8-0.4,0.8-0.8v-19C32,11.8,27.3,5.3,27.2,5.3z M11.2,1.7h14.4v2.5H11.2V1.7z M8.7,29.8
	c-0.8,0.3-1.5,0.4-2.2,0.4s-1.3-0.1-1.8-0.4c-1.1-0.5-2-1.6-2.5-3.1c-0.6-1.7-0.8-3.8-0.4-5.6c0.4-2,1.2-3.4,2.4-3.8s2.8,0,4.3,1.3
	c1.4,1.2,2.6,2.9,3.2,4.6c0.5,1.5,0.5,2.8,0,4C11.2,28.4,10.2,29.3,8.7,29.8z M22.3,30.2H11.5c0.8-0.6,1.4-1.3,1.8-2.1
	c0.7-1.4,0.7-3.2,0-5.1c-0.8-2.1-2.3-4.3-4.1-5.8c-0.6-0.5-1.1-0.8-1.7-1.1v-3.8h14.8C22.3,12.3,22.3,30.2,22.3,30.2z M7.9,10.5
	l2.9-4.6h14.9l-3.2,4.6H7.9z M30.4,30.1l-6.3,0.1v-19l2.7-3.9l3.6,4.9V30.1z"/>
</svg>
