<?xml version="1.0" encoding="utf-8"?>
<!-- Generator: Adobe Illustrator 24.1.2, SVG Export Plug-In . SVG Version: 6.00 Build 0)  -->
<svg version="1.1" id="Livello_1" xmlns="http://www.w3.org/2000/svg" xmlns:xlink="http://www.w3.org/1999/xlink" x="0px" y="0px"
	 viewBox="0 0 43 38" style="enable-background:new 0 0 43 38;" xml:space="preserve">
<style type="text/css">
	.st0{fill:#617184;}
</style>
<path class="st0" d="M32.5,13.4v19.9c0,2.4-2,4.4-4.4,4.4H14.9c-2.4,0-4.4-2-4.4-4.4V13.4c-0.9-0.2-1.7-0.6-2.4-1.3
	c-0.4-0.4-0.4-1.1,0-1.6L10.6,8H9.9C9.3,8,8.8,7.5,8.8,6.9s0.5-1.1,1.1-1.1h0.9c-0.2-0.5-0.4-1.1-0.4-1.7c0-2.1,1.7-3.9,3.9-3.9
	h14.3c2.1,0,3.9,1.7,3.9,3.9c0,0.6-0.1,1.2-0.4,1.7h0.9c0.6,0,1.1,0.5,1.1,1.1S33.7,8,33.1,8h-0.6l2.5,2.5c0.4,0.4,0.4,1.1,0,1.6
	C34.3,12.7,33.4,13.2,32.5,13.4z M30.3,16.8v-3.4c-0.4-0.1-0.7-0.3-1.2-0.6c-0.5-0.3-0.6-0.4-1-0.4c-0.4,0-0.6,0.1-1,0.4
	c-0.8,0.5-1.3,0.7-2.3,0.7s-1.5-0.2-2.3-0.7c-0.5-0.3-0.6-0.4-1-0.4s-0.6,0.1-1,0.4c-0.8,0.5-1.3,0.7-2.3,0.7s-1.5-0.2-2.3-0.7
	c-0.5-0.3-0.6-0.4-1-0.4s-0.6,0.1-1,0.4c-0.4,0.3-0.8,0.5-1.2,0.6v20c0,1.2,1,2.2,2.2,2.2h13.2c1.2,0,2.2-1,2.2-2.2V30h-9.9
	c-1.8,0-3.3-1.5-3.3-3.3v-6.6c0-1.8,1.5-3.3,3.3-3.3H30.3z M30.3,19h-9.9c-0.6,0-1.1,0.5-1.1,1.1v6.6c0,0.6,0.5,1.1,1.1,1.1h9.9V19z
	 M14.3,2.5c-0.9,0-1.7,0.7-1.7,1.7s0.7,1.7,1.7,1.7h14.3c0.9,0,1.7-0.7,1.7-1.7s-0.7-1.7-1.7-1.7H14.3z M29.3,8H13.7l-3.1,3.1
	c0.3,0.1,0.6,0.2,1,0.2c0.4,0,0.6-0.1,1-0.4c0.8-0.5,1.3-0.7,2.3-0.7c0.9,0,1.5,0.2,2.3,0.7c0.5,0.3,0.6,0.4,1,0.4
	c0.4,0,0.6-0.1,1-0.4c0.8-0.5,1.3-0.7,2.3-0.7s1.5,0.2,2.3,0.7c0.5,0.3,0.6,0.4,1,0.4c0.4,0,0.6-0.1,1-0.4c0.8-0.5,1.3-0.7,2.3-0.7
	c0.9,0,1.5,0.2,2.3,0.7c0.5,0.3,0.6,0.4,1,0.4c0.4,0,0.7-0.1,1-0.2L29.3,8z"/>
</svg>
