<?xml version="1.0" encoding="utf-8"?>
<!-- Generator: Adobe Illustrator 24.1.2, SVG Export Plug-In . SVG Version: 6.00 Build 0)  -->
<svg version="1.1" id="Livello_1" xmlns="http://www.w3.org/2000/svg" xmlns:xlink="http://www.w3.org/1999/xlink" x="0px" y="0px"
	 viewBox="0 0 44.3 41.7" style="enable-background:new 0 0 44.3 41.7;" xml:space="preserve">
<style type="text/css">
	.st0{fill:#617184;}
</style>
<path class="st0" d="M22,6.8c-1.9,0-3.2,0.8-3.2,1.9s1.3,1.9,3.2,1.9c1.9,0,3.2-0.8,3.2-1.9S23.9,6.8,22,6.8z M31.5,27.7
	c-0.6-0.4-1.3-0.5-2-0.3c-0.7,0.2-1.3,0.6-1.7,1.2c-0.8,1.2-0.5,2.9,0.7,3.7c0,0,0,0,0,0c0.4,0.2,0.9,0.4,1.3,0.4
	c1,0,1.8-0.5,2.3-1.3c0.4-0.6,0.5-1.3,0.4-2C32.5,28.7,32.1,28.1,31.5,27.7z M36.3,20c-0.4-0.2-0.9-0.4-1.3-0.4
	c-1,0-1.8,0.5-2.3,1.3c-0.4,0.6-0.5,1.3-0.4,2c0.2,1.2,1.2,2.1,2.4,2.1c0.2,0,0.5,0,0.7-0.1c0.7-0.2,1.3-0.6,1.7-1.2
	C37.9,22.5,37.5,20.9,36.3,20z M15,29.6c-1.3,0.1-2.2,1.4-2,2.8c0.2,1.4,1.3,2.4,2.6,2.3c1.3-0.1,2.2-1.4,2-2.8
	C17.4,30.5,16.2,29.5,15,29.6z M13.7,25.9c-0.2-1.4-1.3-2.4-2.6-2.2S9,25,9.1,26.4c0.2,1.4,1.3,2.4,2.6,2.3
	C13,28.5,13.9,27.3,13.7,25.9z M9.9,19.9c-0.2-1.4-1.3-2.4-2.6-2.3s-2.2,1.4-2,2.8c0.2,1.4,1.3,2.4,2.6,2.2
	C9.2,22.5,10.1,21.2,9.9,19.9z M42.4,8.7L42.4,8.7c0-0.1-0.1-0.2-0.1-0.2c-0.7-1.2-1.8-2.1-3.1-2.6L24.9,1c-1.9-0.7-4-0.7-5.8,0
	l-14.2,5C3.3,6.5,2.1,7.6,1.5,9.1l0,0.1C1.2,9.7,1.1,10.3,1,11v19.5c0,2.4,1.5,4.6,3.8,5.4l13.3,4.7c1.2,0.4,2.5,0.7,3.8,0.7H22
	c1.3,0,2.6-0.2,3.8-0.7l13.3-4.7c2.3-0.8,3.8-3,3.8-5.4V11.3C43,10.4,42.8,9.5,42.4,8.7z M41.2,11.4v19.2c0,1.7-1.1,3.2-2.6,3.7
	l-13.3,4.7c-0.8,0.3-1.6,0.4-2.4,0.5V17.7c0.8-0.1,1.6-0.4,2.4-0.7L41,10.2C41.1,10.6,41.2,11,41.2,11.4z M26.7,14.4l-2.1,0.9
	c-2.4,0.9-3,0.7-4.1,0.2l0,0L3.6,9C4,8.4,4.7,7.9,5.4,7.6l14.2-5c1.5-0.5,3.2-0.5,4.7,0l14.2,5c0.6,0.2,1.1,0.6,1.6,1L26.7,14.4z
	 M2.8,11.1c0-0.1,0-0.3,0.1-0.4l16.5,6.5l0.4,0.2c0.4,0.2,0.9,0.3,1.3,0.4l0,21.7c-0.8-0.1-1.6-0.2-2.4-0.5L5.4,34.2
	c-1.6-0.5-2.6-2-2.6-3.7V11.3L2.8,11.1z"/>
</svg>
