<?xml version="1.0" encoding="utf-8"?>
<!-- Generator: Adobe Illustrator 24.1.2, SVG Export Plug-In . SVG Version: 6.00 Build 0)  -->
<svg version="1.1" id="Livello_1" xmlns="http://www.w3.org/2000/svg" xmlns:xlink="http://www.w3.org/1999/xlink" x="0px" y="0px"
	 viewBox="0 0 43 38" style="enable-background:new 0 0 43 38;" xml:space="preserve">
<style type="text/css">
	.st0{fill:#617184;}
</style>
<path class="st0" d="M29.6,20.3c0.1,0.3-0.1,0.5-0.5,0.6c-0.6,0.1-2.4,0.6-2.4,0.6l2.3,1.3c0.3,0.1,0.4,0.5,0.3,0.8
	s-0.5,0.4-0.8,0.3l0,0l-2.3-1.3l0.6,2.4c0.1,0.3-0.2,0.6-0.4,0.6c-0.2,0-0.6-0.1-0.6-0.4L25,21.8l-3.3-1.9v3.8l2.5,2.5
	c0.3,0.3,0.3,0.5,0,0.8s-0.5,0.3-0.8,0l0,0l-1.8-1.8v2.7c0,0.3-0.3,0.5-0.5,0.5c-0.3,0-0.5-0.3-0.5-0.5l0,0v-2.7L19,27
	c-0.3,0.3-0.5,0.3-0.8,0s-0.3-0.5,0-0.8l0,0l2.5-2.5v-3.8l-3.3,1.9l-0.9,3.4c0,0.3-0.5,0.4-0.6,0.4c-0.3-0.1-0.5-0.4-0.4-0.6l0,0
	l0.6-2.4l-2.3,1.3C13.5,24,13.2,24,13,23.8c0-0.4,0-0.8,0.3-0.9l0,0l2.3-1.3l-2.1-0.8c-0.3-0.1-0.5-0.4-0.4-0.6
	c0.1-0.3,0.4-0.5,0.6-0.4l3.4,0.9l3.3-1.9L17.1,17c0,0-2.6,0.8-3.4,0.9c-0.2,0-0.5-0.1-0.6-0.3C13,17.4,13.2,17,13.4,17
	c0.4-0.1,2.4-0.6,2.4-0.6l-2.3-1.3c-0.3-0.1-0.4-0.5-0.1-0.8c0.1-0.3,0.5-0.4,0.8-0.1l2.3,1.3l-0.6-2.4c-0.1-0.3,0.1-0.6,0.4-0.6
	c0.3-0.1,0.6,0.1,0.6,0.4l0,0l0.9,3.4l3.3,1.9v-3.8l-2.5-2.5c-0.3-0.3-0.3-0.5,0-0.8s0.5-0.3,0.8,0l1.8,1.8v-2.7
	c0-0.3,0.3-0.5,0.5-0.5c0.3,0,0.5,0.3,0.5,0.5l0,0v2.7l1.8-1.8c0.3-0.3,0.5-0.3,0.8,0s0.3,0.5,0,0.8L22,14.3v3.8l3.3-1.9l0.9-3.4
	c0.1-0.3,0.4-0.5,0.6-0.4c0.3,0.1,0.5,0.4,0.4,0.6l0,0l-0.6,2.4l2.3-1.3c0.3-0.1,0.6,0,0.8,0.3c0.1,0.3,0,0.5-0.1,0.8l-2.3,1.3
	l2.4,0.6c0.3,0.1,0.5,0.2,0.4,0.6c-0.2,0.6-0.6,0.4-0.6,0.4l-3.7-1L22.4,19l3.3,1.9l3.4-0.9C29.4,19.9,29.6,20,29.6,20.3z
	 M35.4,30.2c2-3.3,3-7.2,3-11.2c0-4.1-1-7.8-3-11.2c0.9-1.6,2-3.9,2.3-6.4l0.2-1H5.1l0.2,0.9c0.2,2.5,1.4,4.8,2.3,6.4
	c-2,3.4-3,7.2-3,11.2c0,4.1,1,8,3,11.2c-1.3,2.2-2.1,4.4-2.3,6.4l-0.2,1h32.6v-0.9C37.5,34.2,36.3,31.8,35.4,30.2z M7.3,35.8
	c0.2-0.8,0.4-1.5,0.6-2.1h27.3c0.3,0.7,0.5,1.4,0.6,2.1H7.3z M35.8,2.2c-0.2,0.8-0.4,1.6-0.6,2.2H7.9C7.6,3.6,7.3,2.9,7.2,2.2H35.8z
	 M8.6,9.5c0.6,0.9,1.2,1.5,1.2,1.6c0,0,0.2,0.2,0.3,0.3c0.6,0.7,1.9-0.4,1.4-1c-0.1-0.2-0.3-0.4-0.3-0.4S9.8,8.4,8.7,6.2h25.5
	c-1,1.9-2,3.2-2.4,3.6c0,0-0.4,0.4-0.4,0.5c-0.2,0.6,0.7,1.4,1.4,1c0.1,0,0.3-0.3,0.3-0.3c0.1-0.1,0.6-0.7,1.2-1.6
	c1.5,2.9,2.3,6.2,2.3,9.5s-0.8,6.6-2.3,9.5c-0.6-0.9-1.2-1.5-1.2-1.6c0,0-0.2-0.2-0.3-0.3c-0.4-0.4-1.6,0.5-1.3,1.1
	c0.1,0.1,0.3,0.3,0.3,0.3s1.4,1.7,2.5,3.9H8.7c1.2-2.2,2.5-3.9,2.5-3.9s0.3-0.2,0.3-0.4c0.3-0.8-0.9-1.5-1.4-1
	c-0.1,0.1-0.3,0.3-0.3,0.3c-0.1,0.1-0.6,0.7-1.2,1.6c-1.5-2.9-2.3-6.2-2.3-9.5C6.3,15.7,7.1,12.4,8.6,9.5z"/>
</svg>
