<svg width="32" height="32" viewBox="0 0 32 32" fill="none" xmlns="http://www.w3.org/2000/svg">
<g clip-path="url(#clip0_1208_8)">
<path d="M31.03 4.49821C30.878 4.36221 30.676 4.3032 30.468 4.3372L17.98 6.47721V5.59321C17.98 5.51321 17.962 5.43621 17.935 5.36521L29.376 2.19319C29.688 2.10619 29.894 1.81119 29.866 1.49119L29.791 0.612194C29.773 0.408194 29.664 0.225194 29.493 0.112194C29.322 0.000193574 29.109 -0.0288094 28.914 0.0341906L10.111 6.1482C9.76399 6.2612 9.571 6.63019 9.677 6.97819C9.764 7.26619 10.03 7.4542 10.319 7.4542C10.379 7.4542 10.44 7.44621 10.5 7.42921L10.868 7.32719V7.6822C10.523 7.7482 10.282 8.06519 10.326 8.41719C10.362 8.71119 10.589 8.92821 10.868 8.98121V16.2832H0V17.2102C0 20.6752 1.22801 24.0432 3.45801 26.6882C6.27701 30.0642 10.425 32.0012 14.836 32.0012C15.166 32.0012 15.498 31.9862 15.85 31.9712C19.852 31.7012 23.63 29.7762 26.212 26.6912C28.443 24.0432 29.673 20.6752 29.673 17.2102V16.2832H17.984V8.12821L30.618 6.53721C30.939 6.49621 31.186 6.23421 31.204 5.91221L31.256 5.03721C31.264 4.83321 31.183 4.63421 31.03 4.49821ZM13.976 16.2822V6.4922C13.976 6.4822 13.971 6.47421 13.971 6.46421L14.942 6.1952V16.2812H13.976V16.2822ZM12.105 6.9832L12.944 6.75019V16.2822H12.105V6.9832ZM24.784 25.5012C22.524 28.2022 19.221 29.8862 15.745 30.1192C15.441 30.1332 15.139 30.1462 14.835 30.1462C10.978 30.1462 7.34999 28.4522 4.88199 25.4972C3.13099 23.4182 2.08599 20.8352 1.89099 18.1362H27.777C27.581 20.8362 26.536 23.4202 24.784 25.5012ZM15.973 16.2822V5.9102L16.741 5.69722V16.2832H15.973V16.2822Z" fill="#617184"/>
</g>
<defs>
<clipPath id="clip0_1208_8">
<rect width="32" height="32" fill="white"/>
</clipPath>
</defs>
</svg>
