<?xml version="1.0" encoding="utf-8"?>
<!-- Generator: Adobe Illustrator 24.1.2, SVG Export Plug-In . SVG Version: 6.00 Build 0)  -->
<svg version="1.1" id="Livello_1" xmlns="http://www.w3.org/2000/svg" xmlns:xlink="http://www.w3.org/1999/xlink" x="0px" y="0px"
	 viewBox="0 0 32 32" style="enable-background:new 0 0 32 32;" xml:space="preserve">
<style type="text/css">
	.st0{fill:#617184;}
</style>
<path class="st0" d="M30.6,1.4L30.6,1.4c-0.1-0.3-0.4-0.5-0.7-0.7C24-0.6,18.4,0.6,14.1,4.2C11.4,4.1,7.5,6,2.8,9.8
	C2.7,9.9,2.6,10,2.5,10c-0.2,0.2-0.4,0.5-0.3,1c0.1,0.3,0.2,0.6,0.6,0.8c1.8,0.8,4.3,1.8,5.4,2.4c-0.4,1.4-0.8,2.8-1,3.9
	c-3.4-0.5-6,1.9-6.5,2.4c-0.4,0.4-0.4,1.1,0,1.5c3.1,2.9,5.6,3.3,6.9,3.3c0.1,1.4,0.7,3.8,3.7,6.6c0.1,0.1,0.4,0.3,0.7,0.3
	s0.5-0.1,0.7-0.3c0,0,2.8-3,2-6.6c1.5-0.3,3.4-1,5.4-1.9c0.4,1,1.2,2,2.4,3c0.1,0.1,0.4,0.3,0.7,0.3c0.3,0,0.5-0.1,0.7-0.3l0-0.1
	c0,0,0.1-0.1,0.1-0.2c2.2-2.7,3.2-5.2,3-7.5C31.2,13.9,32.5,7.7,30.6,1.4z M11.8,6.6c-1.3,1.7-2.3,3.9-2.9,5.6
	c-1-0.5-2.5-1.2-3.8-1.7C6.5,9.4,9.3,7.4,11.8,6.6z M12.7,23.8c-0.1,0.2-0.3,0.6-0.1,0.9c0.9,1.9,0.1,3.7-0.6,4.8
	c-2.9-3.2-2.3-5.3-2.2-5.3c0.1-0.4,0-0.8-0.3-1c-0.3-0.3-0.7-0.4-1-0.2l0,0c-0.7,0.2-2.7,0.3-5.4-1.9c0.7-0.5,2.6-1.7,4.8-1
	c0.3,0.2,0.7,0,0.9-0.1c0.3-0.2,0.4-0.6,0.4-0.8C9,17.4,11.3,9.9,14.1,7c3.8-4.1,9.2-5.7,14.8-4.5c1.6,5.4,0.3,10.9-3.5,15
	c-3,3.2-10.3,5.7-11.9,5.8C13.2,23.4,12.8,23.5,12.7,23.8z M25,20.6c-0.4,1.3-1.2,2.6-1.8,3.5c-0.7-0.9-1-1.4-1.1-1.7
	C23.2,21.8,24.2,21.2,25,20.6z M15,7.5c0.4-0.2,1.2,0.1,1.5,0.6c0.2,0.4,0.8,2.5,2.9,4.6c1,0.9,2.2,1.7,3.4,2.3
	c0.6,0.4,0.7,0.9,0.4,1.4c-0.3,0.5-0.8,0.6-1.2,0.3c-0.8-0.3-2.2-1-3.9-2.6c-2.4-2.2-3.2-4.5-3.5-5.3C14.4,8.4,14.5,7.8,15,7.5z
	 M23.4,6c0,1-0.8,1.8-1.8,1.8c-1,0-1.8-0.8-1.8-1.8s0.8-1.8,1.8-1.8C22.6,4.2,23.4,5,23.4,6z"/>
</svg>
