<svg width="14" height="14" viewBox="0 0 14 14" fill="none" xmlns="http://www.w3.org/2000/svg">
<path fill-rule="evenodd" clip-rule="evenodd" d="M3.00001 1.66755C3.00001 2.40406 2.40306 3.00112 1.66668 3.00112C0.930297 3.00112 0.333344 2.40406 0.333344 1.66755C0.333344 0.931043 0.930297 0.333984 1.66668 0.333984C2.40306 0.333984 3.00001 0.931043 3.00001 1.66755ZM1.66668 8.33446C2.40306 8.33446 3.00001 7.7374 3.00001 7.00089C3.00001 6.26438 2.40306 5.66732 1.66668 5.66732C0.930297 5.66732 0.333344 6.26438 0.333344 7.00089C0.333344 7.7374 0.930297 8.33446 1.66668 8.33446ZM1.66668 13.6678C2.40306 13.6678 3.00001 13.0707 3.00001 12.3342C3.00001 11.5977 2.40306 11.0007 1.66668 11.0007C0.930297 11.0007 0.333344 11.5977 0.333344 12.3342C0.333344 13.0707 0.930297 13.6678 1.66668 13.6678ZM5.00001 1.00065C4.63182 1.00065 4.33334 1.29913 4.33334 1.66732C4.33334 2.03551 4.63182 2.33398 5.00001 2.33398L13 2.33398C13.3682 2.33398 13.6667 2.03551 13.6667 1.66732C13.6667 1.29913 13.3682 1.00065 13 1.00065L5.00001 1.00065ZM4.33334 7.00065C4.33334 6.63246 4.63182 6.33398 5.00001 6.33398L13 6.33398C13.3682 6.33398 13.6667 6.63246 13.6667 7.00065C13.6667 7.36884 13.3682 7.66732 13 7.66732L5.00001 7.66732C4.63182 7.66732 4.33334 7.36884 4.33334 7.00065ZM5.00001 11.6673C4.63182 11.6673 4.33334 11.9658 4.33334 12.334C4.33334 12.7022 4.63182 13.0007 5.00001 13.0007L13 13.0007C13.3682 13.0007 13.6667 12.7022 13.6667 12.334C13.6667 11.9658 13.3682 11.6673 13 11.6673L5.00001 11.6673Z" fill="#0970E6"/>
</svg>
