<?xml version="1.0" encoding="utf-8"?>
<!-- Generator: Adobe Illustrator 24.1.2, SVG Export Plug-In . SVG Version: 6.00 Build 0)  -->
<svg version="1.1" id="Livello_1" xmlns="http://www.w3.org/2000/svg" xmlns:xlink="http://www.w3.org/1999/xlink" x="0px" y="0px"
	 viewBox="0 0 32 32" style="enable-background:new 0 0 32 32;" xml:space="preserve">
<style type="text/css">
	.st0{fill:#617184;}
</style>
<path class="st0" d="M18.6,13.4c0,0.1,0.1,0.1,0.1,0.2l2.8,2.8c0.4,0.4,0.8,0.9,1,1.4s0.4,1.1,0.4,1.7v7.8c-0.1,1.3-0.6,2.5-1.6,3.4
	s-2.2,1.3-3.5,1.3H9.7c-1.3,0.1-2.6-0.4-3.5-1.3s-1.5-2.1-1.6-3.4v-8.7c0-1,0.2-1.9,0.6-2.8c0,0,0-0.1,0-0.1L8,9.5
	C7.2,9,6.5,8.3,6.2,7.3S5.7,5.4,6,4.5c0.3-1,0.8-1.8,1.6-2.4s1.7-0.9,2.7-0.9h10.1c0.5,0,1,0.2,1.4,0.6s0.6,0.9,0.6,1.4v2.7
	c0,0.5-0.2,1.1-0.6,1.4S21,7.9,20.4,7.9h-1.9c0.2,0.6,0.6,1.2,1.1,1.6s1.1,0.7,1.8,0.9c0.5,0.1,1,0.3,1,1.1c0,0.8-0.8,1-1.2,1
	c-0.7,0-1.4-0.3-2-0.6s-1.1-0.8-1.6-1.4L18.6,13.4L18.6,13.4z M20.4,3.2l-10.1,0c-0.6,0-1.2,0.2-1.6,0.6C8.3,4.2,8,4.7,7.9,5.3
	C7.8,5.9,7.9,6.5,8.3,7c0.3,0.5,0.8,0.9,1.4,1h5.9l0.8-1.9c0.1-0.1,0.2-0.2,0.3-0.2c0.1-0.1,0.2-0.1,0.4-0.1h3.5
	C20.4,5.8,20.4,3.2,20.4,3.2z M19.9,29.3c0.6-0.5,0.9-1.2,1-2v-7.8c0-0.3-0.1-0.6-0.2-0.9s-0.3-0.6-0.6-0.8l-2.8-2.8
	c-0.3-0.3-0.5-0.6-0.6-1l-1.3-4.7h-5.1L7,16.7c-0.3,0.6-0.4,1.3-0.4,1.9v8.7c0.1,0.8,0.4,1.5,1,2S8.9,30,9.7,30h8.1
	C18.6,30,19.3,29.8,19.9,29.3L19.9,29.3z M28.9,6.7c-0.6,0-1,0.5-1,1s0.5,1,1,1c0.6,0,1-0.5,1-1S29.5,6.7,28.9,6.7z M28.9,3.8
	c-0.6,0-1,0.5-1,1s0.5,1,1,1c0.6,0,1-0.5,1-1S29.5,3.8,28.9,3.8z M28.9,0.8c-0.6,0-1,0.5-1,1s0.5,1,1,1c0.6,0,1-0.5,1-1
	S29.5,0.8,28.9,0.8z M26,3.7c-0.6,0-1,0.5-1,1s0.5,1,1,1c0.6,0,1-0.5,1-1S26.6,3.7,26,3.7z"/>
</svg>
